<svg width="14" height="45" viewBox="0 0 14 45" fill="none" xmlns="http://www.w3.org/2000/svg">
<path fill-rule="evenodd" clip-rule="evenodd" d="M7 14C10.866 14 14 10.866 14 7C14 3.13401 10.866 0 7 0C3.13401 0 0 3.13401 0 7C0 10.866 3.13401 14 7 14ZM7.14862 16C5.34412 16 3.81634 17.3315 3.56978 19.1191L0.961911 38.0261C0.45337 41.7131 3.31805 45 7.03988 45C10.7339 45 13.5903 41.7597 13.1269 38.0949L10.7328 19.1596C10.5045 17.3539 8.96866 16 7.14862 16Z" fill="url(#paint0_linear_1611_8929)"/>
<defs>
<linearGradient id="paint0_linear_1611_8929" x1="4.05264" y1="52.5" x2="20.8016" y2="-11.5337" gradientUnits="userSpaceOnUse">
<stop stop-color="#BF953F"/>
<stop offset="0.21875" stop-color="#FCF6BA"/>
<stop offset="0.515625" stop-color="#B38728"/>
<stop offset="0.78125" stop-color="#FBF5B7"/>
<stop offset="1" stop-color="#AA771C"/>
</linearGradient>
</defs>
</svg>
