<svg width="1920" height="1920" viewBox="0 0 1920 1920" fill="none" xmlns="http://www.w3.org/2000/svg">
<g opacity="0.5">
<mask id="mask0_1509_16874" style="mask-type:alpha" maskUnits="userSpaceOnUse" x="0" y="0" width="1920" height="1920">
<rect width="1920" height="1920" fill="#D9D9D9"/>
</mask>
<g mask="url(#mask0_1509_16874)">
<path fill-rule="evenodd" clip-rule="evenodd" d="M33.3336 860.55V882.153V887.153V887.154H102.974H107.974H107.974V894.716H397.523H398.317L398.966 895.174L548.527 1000.94L549.583 1001.68V1002.98V1386.29V1387.61L548.495 1388.35L186.411 1635.95L185.773 1636.39H185H-18.333V1631.39H184.227L544.583 1384.97V1004.27L396.728 899.716H107.974V907.02V907.02H107.974H38.3335H33.3336V912.02V917.214V922.214V922.214H102.974H107.974H107.974V928.478H400.694H401.574L402.26 929.029L512.83 1017.85L513.764 1018.6V1019.79V1372.72V1374.06L512.656 1374.8L174.545 1601.52L173.913 1601.94H173.152H-5.50586V1596.94H172.392L508.764 1371.39V1020.99L399.814 933.478H107.974V942.081V942.081H107.974H38.3335H33.3336V947.081V952.273V957.273V957.273H102.974H107.974H107.974V963.538H395.456H396.264L396.919 964.01L483.629 1026.53L484.667 1027.28V1028.56V1361.04V1362.37L483.557 1363.12L183.612 1563.74L182.982 1564.16H182.222H-13.333V1559.16H181.463L479.667 1359.7V1029.84L394.649 968.538H107.974V977.14V977.14H107.974H38.3335H33.3336V982.14V987.331L33.3335 992.331L33.3336 992.331H102.974H107.974L107.974 1012.2L107.974 1012.2H38.3335H33.3336L33.3335 1017.2V1022.39V1027.39L33.3336 1027.39H102.974H107.974L107.974 1035.41H317.179C318.349 1029.24 323.769 1024.57 330.278 1024.57C337.642 1024.57 343.612 1030.54 343.612 1037.91C343.612 1045.27 337.642 1051.24 330.278 1051.24C323.769 1051.24 318.349 1046.58 317.179 1040.41H107.974L107.974 1047.26L107.974 1047.26H38.3335H33.3336L33.3335 1052.26V1057.45V1062.45L33.3336 1062.45H102.974H107.974L107.974 1070.47H221.739C222.91 1064.3 228.33 1059.63 234.839 1059.63C242.203 1059.63 248.172 1065.6 248.172 1072.97C248.172 1080.33 242.203 1086.3 234.839 1086.3C228.33 1086.3 222.91 1081.64 221.739 1075.47H107.974L107.974 1082.32L107.974 1082.32H38.3335H33.3336L33.3335 1087.32V1110.55H-16.6664V1105.55V865.55V860.55H-11.6665H28.3335H33.3335H33.3336ZM33.3335 892.153H102.974V902.02H33.3335H28.3335V907.02V922.214V927.214H33.3335H102.974V937.081H33.3335H28.3335V942.081V957.273V962.273H33.3335H102.974V972.14H33.3335H28.3335V977.14V992.331V997.331H33.3335H102.974V1007.2H33.3335H28.3335V1012.2V1027.39V1032.39H33.3335H102.974V1042.26H33.3335H28.3335V1047.26V1062.45V1067.45H33.3335H102.974V1077.32H33.3335H28.3335V1082.32V1105.55H-11.6665V865.55H28.3335V887.153V892.153H33.3335ZM108.925 1000.35H400.694H401.507L402.164 1000.83L463.268 1045.24L464.335 1046.01L464.298 1047.33L455.568 1355.85L455.53 1357.19L454.392 1357.9L181.323 1528.23L180.716 1528.61H180H-8.88867V1523.61H179.285L450.608 1354.37L459.262 1048.5L399.882 1005.35H108.925V1000.35Z" fill="url(#paint0_linear_1509_16874)"/>
<path fill-rule="evenodd" clip-rule="evenodd" d="M-14.4443 1208.05H303.567C304.738 1201.88 310.158 1197.22 316.667 1197.22C324.031 1197.22 330 1203.19 330 1210.55C330 1217.91 324.031 1223.88 316.667 1223.88C310.158 1223.88 304.738 1219.22 303.567 1213.05H-14.4443V1208.05ZM-9.99989 1243.61H223.567C224.738 1237.44 230.157 1232.77 236.667 1232.77C244.031 1232.77 250 1238.74 250 1246.11C250 1253.47 244.031 1259.44 236.667 1259.44C230.157 1259.44 224.738 1254.77 223.567 1248.61H-9.99989V1243.61ZM332.456 1279.16H-9.99989V1284.16H332.456C333.626 1290.33 339.046 1294.99 345.556 1294.99C352.919 1294.99 358.889 1289.03 358.889 1281.66C358.889 1274.3 352.919 1268.33 345.556 1268.33C339.046 1268.33 333.626 1272.99 332.456 1279.16ZM-8.41569 1315.88H207.773C208.943 1309.71 214.363 1305.05 220.872 1305.05C228.236 1305.05 234.205 1311.02 234.205 1318.38C234.205 1325.75 228.236 1331.72 220.872 1331.72C214.363 1331.72 208.943 1327.05 207.773 1320.88H-8.41569V1315.88ZM258.402 1346.27H-11.9074V1351.27H258.402C259.572 1357.44 264.992 1362.1 271.501 1362.1C278.865 1362.1 284.835 1356.13 284.835 1348.77C284.835 1341.4 278.865 1335.43 271.501 1335.43C264.992 1335.43 259.572 1340.1 258.402 1346.27ZM-11.9074 1383.66H183.913C185.083 1377.49 190.503 1372.83 197.012 1372.83C204.376 1372.83 210.345 1378.8 210.345 1386.16C210.345 1393.53 204.376 1399.5 197.012 1399.5C190.503 1399.5 185.083 1394.83 183.913 1388.66H-11.9074V1383.66Z" fill="url(#paint1_linear_1509_16874)"/>
<path d="M221.111 1672.77V1675.27H221.875L222.509 1674.84L221.111 1672.77ZM648.604 1384.41L650.002 1386.48L651.104 1385.74V1384.41H648.604ZM635.27 951.43C635.27 958.793 641.24 964.763 648.604 964.763C655.967 964.763 661.937 958.793 661.937 951.43C661.937 944.066 655.967 938.096 648.604 938.096C641.24 938.096 635.27 944.066 635.27 951.43ZM-17.7778 1675.27H221.111V1670.27H-17.7778V1675.27ZM222.509 1674.84L650.002 1386.48L647.206 1382.34L219.713 1670.7L222.509 1674.84ZM651.104 1384.41V951.43H646.104V1384.41H651.104Z" fill="url(#paint2_linear_1509_16874)"/>
<path d="M670.77 978.893C670.77 986.256 676.739 992.226 684.103 992.226C691.467 992.226 697.436 986.256 697.436 978.893C697.436 971.529 691.467 965.559 684.103 965.559C676.739 965.559 670.77 971.529 670.77 978.893ZM684.103 1393.17L685.495 1395.25L686.603 1394.51V1393.17H684.103ZM215.556 1707.22V1709.72H216.316L216.948 1709.29L215.556 1707.22ZM681.603 978.893V1393.17H686.603V978.893H681.603ZM682.711 1391.1L214.164 1705.14L216.948 1709.29L685.495 1395.25L682.711 1391.1ZM215.556 1704.72H-21.1108V1709.72H215.556V1704.72Z" fill="url(#paint3_linear_1509_16874)"/>
<path d="M217.38 1746.1V1748.6H218.145L218.779 1748.17L217.38 1746.1ZM714.946 1410.12L716.345 1412.19L717.446 1411.45V1410.12H714.946ZM701.613 1019.79C701.613 1027.16 707.582 1033.13 714.946 1033.13C722.31 1033.13 728.279 1027.16 728.279 1019.79C728.279 1012.43 722.31 1006.46 714.946 1006.46C707.582 1006.46 701.613 1012.43 701.613 1019.79ZM-13.6533 1748.6H217.38V1743.6H-13.6533V1748.6ZM218.779 1748.17L716.345 1412.19L713.547 1408.05L215.981 1744.03L218.779 1748.17ZM717.446 1410.12V1019.79H712.446V1410.12H717.446Z" fill="url(#paint4_linear_1509_16874)"/>
<path d="M740.604 1055.44C740.604 1062.8 746.573 1068.77 753.937 1068.77C761.301 1068.77 767.27 1062.8 767.27 1055.44C767.27 1048.07 761.301 1042.11 753.937 1042.11C746.573 1042.11 740.604 1048.07 740.604 1055.44ZM753.937 1422.39L755.337 1424.46L756.437 1423.72V1422.39H753.937ZM217.778 1784.99V1787.49H218.544L219.179 1787.07L217.778 1784.99ZM751.437 1055.44V1422.39H756.437V1055.44H751.437ZM752.536 1420.32L216.378 1782.92L219.179 1787.07L755.337 1424.46L752.536 1420.32ZM217.778 1782.49H-13.333V1787.49H217.778V1782.49Z" fill="url(#paint5_linear_1509_16874)"/>
<path d="M50.5552 1860.63V1858.13H48.0552V1860.63H50.5552ZM356.2 1860.63V1863.13H358.7V1860.63H356.2ZM356.2 1746.1V1743.6H353.7V1746.1H356.2ZM575.009 1746.1V1748.6H577.509V1746.1H575.009ZM561.675 1690.01C561.675 1697.37 567.645 1703.34 575.009 1703.34C582.372 1703.34 588.342 1697.37 588.342 1690.01C588.342 1682.64 582.372 1676.68 575.009 1676.68C567.645 1676.68 561.675 1682.64 561.675 1690.01ZM53.0552 1938.93V1860.63H48.0552V1938.93H53.0552ZM50.5552 1863.13H356.2V1858.13H50.5552V1863.13ZM358.7 1860.63V1746.1H353.7V1860.63H358.7ZM356.2 1748.6H575.009V1743.6H356.2V1748.6ZM577.509 1746.1V1690.01H572.509V1746.1H577.509Z" fill="url(#paint6_linear_1509_16874)"/>
<path d="M616.075 1783.5C616.075 1790.86 622.045 1796.83 629.408 1796.83C636.772 1796.83 642.742 1790.86 642.742 1783.5C642.742 1776.14 636.772 1770.17 629.408 1770.17C622.045 1770.17 616.075 1776.14 616.075 1783.5ZM393.071 1783.5V1781H390.571V1783.5H393.071ZM393.071 1892.77V1895.27H395.571V1892.77H393.071ZM150.555 1892.77V1890.27H148.055V1892.77H150.555ZM629.408 1781H393.071V1786H629.408V1781ZM390.571 1783.5V1892.77H395.571V1783.5H390.571ZM393.071 1890.27H150.555V1895.27H393.071V1890.27ZM148.055 1892.77V1940.68H153.055V1892.77H148.055Z" fill="url(#paint7_linear_1509_16874)"/>
<path fill-rule="evenodd" clip-rule="evenodd" d="M408.889 1874.64C408.889 1881.15 413.553 1886.57 419.722 1887.74V1933.09H424.722V1887.74C430.891 1886.57 435.555 1881.15 435.555 1874.64C435.555 1867.28 429.586 1861.31 422.222 1861.31C414.858 1861.31 408.889 1867.28 408.889 1874.64ZM542.222 1883.24C542.222 1889.75 546.887 1895.17 553.055 1896.34V1943.4H558.055V1896.34C564.224 1895.17 568.889 1889.75 568.889 1883.24C568.889 1875.87 562.919 1869.91 555.555 1869.91C548.192 1869.91 542.222 1875.87 542.222 1883.24Z" fill="url(#paint8_linear_1509_16874)"/>
<path fill-rule="evenodd" clip-rule="evenodd" d="M923.056 1664.29C916.887 1663.12 912.223 1657.7 912.223 1651.19C912.223 1643.82 918.192 1637.85 925.556 1637.85C932.92 1637.85 938.889 1643.82 938.889 1651.19C938.889 1657.7 934.225 1663.12 928.056 1664.29V1948.55H923.056V1664.29ZM843.333 1728.54C843.333 1735.05 847.998 1740.47 854.167 1741.64V1943.57H859.167V1741.64C865.336 1740.47 870 1735.05 870 1728.54C870 1721.17 864.031 1715.2 856.667 1715.2C849.303 1715.2 843.333 1721.17 843.333 1728.54ZM878.889 1762.92C878.889 1769.42 883.554 1774.84 889.722 1776.01V1951.99H894.722V1776.01C900.891 1774.84 905.556 1769.42 905.556 1762.92C905.556 1755.55 899.586 1749.58 892.222 1749.58C884.859 1749.58 878.889 1755.55 878.889 1762.92ZM950 1762.92C950 1769.42 954.665 1774.84 960.833 1776.01V1953.99H965.833V1776.01C972.002 1774.84 976.667 1769.42 976.667 1762.92C976.667 1755.55 970.697 1749.58 963.333 1749.58C955.97 1749.58 950 1755.55 950 1762.92Z" fill="url(#paint9_linear_1509_16874)"/>
<path fill-rule="evenodd" clip-rule="evenodd" d="M1901.67 1856.28H1314.95V1882.51H1901.67V1856.28ZM1314.95 1851.28H1309.95V1856.28V1882.51V1887.51H1314.95H1343.06V1941.68H1348.06V1887.51H1416.39V1939.96H1421.39V1887.51H1476.54V1935.42H1481.54V1887.51H1546.35V1941.85H1551.35V1887.51H1730.83V1938.24H1735.83V1887.51H1779.72V1943.4H1784.72V1887.51H1835.28V1941.68H1840.28V1887.51H1887.5V1937H1892.5V1887.51H1901.67H1906.67V1882.51V1856.28V1851.28H1901.67H1314.95Z" fill="url(#paint10_linear_1509_16874)"/>
<path d="M1193.94 1125.56C1193.94 1132.92 1199.91 1138.89 1207.27 1138.89C1214.64 1138.89 1220.61 1132.92 1220.61 1125.56C1220.61 1118.19 1214.64 1112.22 1207.27 1112.22C1199.91 1112.22 1193.94 1118.19 1193.94 1125.56ZM1207.27 1396.68L1209.7 1397.3L1209.77 1396.99V1396.68H1207.27ZM1136.28 1674.82L1133.85 1674.2L1133.78 1674.5V1674.82H1136.28ZM1204.77 1125.56V1396.68H1209.77V1125.56H1204.77ZM1204.85 1396.06L1133.85 1674.2L1138.7 1675.43L1209.7 1397.3L1204.85 1396.06ZM1133.78 1674.82V1935.42H1138.78V1674.82H1133.78Z" fill="url(#paint11_linear_1509_16874)"/>
<path d="M1173.33 1674.39L1170.91 1673.78L1170.83 1674.08V1674.39H1173.33ZM1243.36 1394.93L1245.78 1395.54L1245.86 1395.24V1394.93H1243.36ZM1230.02 1062.45C1230.02 1069.81 1235.99 1075.78 1243.36 1075.78C1250.72 1075.78 1256.69 1069.81 1256.69 1062.45C1256.69 1055.09 1250.72 1049.12 1243.36 1049.12C1235.99 1049.12 1230.02 1055.09 1230.02 1062.45ZM1175.83 1929.65V1674.39H1170.83V1929.65H1175.83ZM1175.76 1675L1245.78 1395.54L1240.93 1394.32L1170.91 1673.78L1175.76 1675ZM1245.86 1394.93V1062.45H1240.86V1394.93H1245.86Z" fill="url(#paint12_linear_1509_16874)"/>
<path d="M1263.33 989.414C1263.33 996.778 1269.3 1002.75 1276.67 1002.75C1284.03 1002.75 1290 996.778 1290 989.414C1290 982.05 1284.03 976.081 1276.67 976.081C1269.3 976.081 1263.33 982.05 1263.33 989.414ZM1276.67 1396.75L1279.09 1397.35L1279.17 1397.06V1396.75H1276.67ZM1207.78 1672.78L1205.35 1672.17L1205.28 1672.47V1672.78H1207.78ZM1274.17 989.414V1396.75H1279.17V989.414H1274.17ZM1274.24 1396.14L1205.35 1672.17L1210.2 1673.38L1279.09 1397.35L1274.24 1396.14ZM1205.28 1672.78V1934.8H1210.28V1672.78H1205.28Z" fill="url(#paint13_linear_1509_16874)"/>
<path d="M1243.35 1671.31L1240.94 1670.68L1240.85 1670.99V1671.31H1243.35ZM1316.1 1391.42L1318.52 1392.05L1318.6 1391.74V1391.42H1316.1ZM1302.77 925.72C1302.77 933.084 1308.73 939.053 1316.1 939.053C1323.46 939.053 1329.43 933.084 1329.43 925.72C1329.43 918.356 1323.46 912.386 1316.1 912.386C1308.73 912.386 1302.77 918.356 1302.77 925.72ZM1245.85 1931.92V1671.31H1240.85V1931.92H1245.85ZM1245.77 1671.94L1318.52 1392.05L1313.68 1390.79L1240.94 1670.68L1245.77 1671.94ZM1318.6 1391.42V925.72H1313.6V1391.42H1318.6Z" fill="url(#paint14_linear_1509_16874)"/>
<path fill-rule="evenodd" clip-rule="evenodd" d="M1891.11 1105.55L1891.11 1082.32H1886.11H1816.57L1816.57 1082.32V1077.32V1075.47H1767.99C1766.82 1081.64 1761.4 1086.3 1754.89 1086.3C1747.52 1086.3 1741.55 1080.33 1741.55 1072.97C1741.55 1065.6 1747.52 1059.63 1754.89 1059.63C1761.4 1059.63 1766.82 1064.3 1767.99 1070.47H1816.57V1067.45L1816.57 1062.45H1821.57L1891.11 1062.45L1891.11 1047.26H1886.11H1816.57L1816.57 1047.26V1042.26V1040.41H1734.23C1733.06 1046.58 1727.64 1051.24 1721.13 1051.24C1713.77 1051.24 1707.8 1045.27 1707.8 1037.91C1707.8 1030.54 1713.77 1024.58 1721.13 1024.58C1727.64 1024.58 1733.06 1029.24 1734.23 1035.41H1816.57V1032.39L1816.57 1027.39H1821.57L1891.11 1027.39L1891.11 1012.2H1886.11H1816.57L1816.57 1012.2V1007.2V997.331L1816.57 992.331H1821.57L1891.11 992.331L1891.11 977.14H1886.11H1816.57L1816.57 977.14V972.14V970.252L1659.74 970.287C1658.58 976.456 1653.16 981.122 1646.65 981.124C1639.28 981.125 1633.31 975.157 1633.31 967.793C1633.31 960.43 1639.28 954.459 1646.64 954.457C1653.15 954.456 1658.57 959.119 1659.74 965.287L1816.57 965.252V962.273L1816.57 957.273H1821.57H1891.11L1891.11 957.273L1891.11 942.081H1886.11H1816.57L1816.57 942.081V937.081V934.075L1623.66 934.063C1622.49 940.232 1617.07 944.896 1610.56 944.895C1603.2 944.895 1597.23 938.925 1597.23 931.561C1597.23 924.197 1603.2 918.228 1610.57 918.229C1617.07 918.229 1622.49 922.894 1623.66 929.063L1816.57 929.075V927.214L1816.57 922.214H1821.57L1891.11 922.214L1891.11 907.02H1886.11H1816.57V907.02V902.02V900.171H1776.13C1774.96 906.34 1769.54 911.004 1763.03 911.004C1755.67 911.004 1749.7 905.035 1749.7 897.671C1749.7 890.307 1755.67 884.338 1763.03 884.338C1769.54 884.338 1774.96 889.002 1776.13 895.171H1816.57V892.153V887.154H1821.57L1891.11 887.153V865.55L1891.11 860.55H1896.11H1936.11H1941.11L1941.11 1110.55H1891.11V1105.55ZM1891.11 1077.32H1821.57V1067.45H1891.11H1896.11V1062.45V1047.26V1042.26H1891.11H1821.57V1032.39H1891.11H1896.11V1027.39V1012.2V1007.2H1891.11H1821.57V997.331H1891.11H1896.11V992.331V977.14V972.14H1891.11H1821.57V962.273H1891.11H1896.11V957.273V942.081V937.081H1891.11H1821.57V927.214H1891.11H1896.11V922.214V907.02V902.02H1891.11H1821.57V892.153H1891.11H1896.11V887.153V865.55H1936.11V1105.55H1896.11V1082.32V1077.32H1891.11ZM1685.05 1016.18C1677.69 1016.18 1671.72 1010.21 1671.72 1002.85C1671.72 995.485 1677.69 989.516 1685.05 989.516C1691.56 989.516 1696.98 994.18 1698.15 1000.35H1816.57L1816.57 1005.35H1698.15C1696.98 1011.52 1691.56 1016.18 1685.05 1016.18Z" fill="url(#paint15_linear_1509_16874)"/>
<path fill-rule="evenodd" clip-rule="evenodd" d="M1202.29 720.271H1203.33H1920V725.271H1204.38L999.109 932.59V1138.41H1000.34H1005.34V1143.41V1205.87V1210.87H1010.34H1016.63H1021.63V1205.87V1143.41V1138.41H1026.63H1027.86V932.147V931.113L1028.59 930.381L1204.34 754.339L1205.07 753.605H1206.11H1917.22V758.605H1207.15L1032.86 933.181V1138.41H1035.26H1040.26V1143.41V1205.87V1210.87H1045.26H1051.55H1056.55V1205.87V1143.41V1138.41H1061.55H1063.94V932.147V931.11L1064.68 930.377L1205.46 789.892L1206.19 789.161H1207.22H1914.44V794.161H1208.26L1068.94 933.184V1138.41H1070.17H1075.17V1143.41V1205.87V1210.87H1080.17H1086.47H1091.47V1205.87V1143.41V1138.41H1096.47H1097.7V933.315V932.25L1098.46 931.513L1208.82 825.414L1209.55 824.716H1210.56H1917.78V829.716H1211.56L1102.7 934.379V1138.41H1105.09H1110.09V1143.41V1205.87V1210.87H1115.09H1136.51H1141.51V1215.87V1383.5V1388.5H1136.51H1115.09H1110.09V1393.5V1455.96V1460.96H1105.09H1103.61V1936.52H1098.61V1460.96H1096.47H1091.47V1455.96V1393.5V1388.5H1086.47H1080.17H1075.17V1393.5V1455.96V1460.96H1070.17H1069.17V1938.24H1064.17V1460.96H1061.55H1056.55V1455.96V1393.5V1388.5H1051.55H1045.26H1040.26V1393.5V1455.96V1460.96H1035.26H1033.61V1931.63H1028.61V1460.96H1026.63H1021.63V1455.96V1393.5V1388.5H1016.63H1010.34H1005.34V1393.5V1455.96V1460.96H1000.34H999.167V1931.37H994.167V1460.96H991.716H986.716V1455.96V1393.5V1388.5H981.716H975.422H970.422V1393.5V1455.96V1460.96H965.422H963.611V1490.17V1490.98L963.143 1491.63L793.682 1728.21V1933.67H788.682V1727.41V1726.6L789.149 1725.95L958.611 1489.37V1460.96H956.799H951.799V1455.96V1393.5V1388.5H946.799H940.505H935.505V1393.5V1455.96V1460.96H930.505H929.857V1488.42V1489.22L929.391 1489.87L756.437 1731.71V1925.49H751.437V1730.91V1730.11L751.903 1729.46L924.857 1487.62V1460.96H921.883H916.883V1455.96V1393.5V1388.5H911.883H905.588H900.588V1393.5V1455.96V1460.96H895.588H892.613V1495.43V1496.25L892.128 1496.91L720.938 1729.98V1937.18H715.938V1729.16V1728.34L716.423 1727.68L887.613 1494.61V1460.96H886.965H881.965V1455.96V1393.5V1388.5H876.965H870.671H865.671V1393.5V1455.96V1460.96H860.671H858.278V1488.42V1489.25L857.779 1489.92L682.5 1724.21L682.5 1931.37H677.5L677.5 1723.38V1722.55L677.998 1721.88L853.278 1487.59V1460.96H852.049H847.049V1455.96V1393.5V1388.5H842.049H825.279H820.279V1383.5V1215.87V1210.87H825.279H842.049H847.049V1205.87V1143.41V1138.41H852.049H860.671H865.671V1143.41V1205.87V1210.87H870.671H876.965H881.965V1205.87V1143.41V1138.41H886.965H895.588H900.588V1143.41V1205.87V1210.87H905.588H911.883H916.883V1205.87V1143.41V1138.41H921.883H930.505H935.505V1143.41V1205.87V1210.87H940.505H946.799H951.799V1205.87V1143.41V1138.41H956.799H958.582L958.61 936.238H956.799H951.799V931.238V864.107V859.107H946.799H940.504H935.504V864.107V931.238V936.238H930.504H928.693L928.677 1138.41L923.677 1138.41L923.693 936.238H921.882H916.882V931.238V864.107V859.107H911.882H905.587H900.587V864.107V931.238V936.238H895.587H886.965H881.965V931.238V864.107V859.107H876.965H870.671H865.671V864.107V931.238V936.238H860.671H858.859V1138.41H853.859V936.238H852.048H847.048V931.238V864.107V859.107H842.048H827.606H822.606V854.107V797.495V792.495H827.606H991.027H996.027V797.495V854.107V859.107H991.027H975.421H970.421V864.107V931.238V936.238H965.421H963.61L963.582 1138.41H965.422H970.422V1143.41V1205.87V1210.87H975.422H981.716H986.716V1205.87V1143.41V1138.41H991.716H994.109V931.562V930.534L994.832 929.803L1201.56 721.013L1202.29 720.271ZM860.671 931.238V859.107V854.107H865.671H881.965H886.965V859.107V931.238H895.587V859.107V854.107H900.587H916.882H921.882V859.107V931.238H930.504V859.107V854.107H935.504H951.799H956.799V859.107V931.238H965.421V859.107V854.107H970.421H991.027V797.495H827.606V854.107H847.048H852.048V859.107V931.238H860.671ZM893.777 936.238V1138.41H888.777V936.238H893.777ZM1070.17 1455.96V1388.5V1383.5H1075.17H1091.47H1096.47V1388.5V1455.96H1105.09V1388.5V1383.5H1110.09H1136.51V1215.87H1110.09H1105.09V1210.87V1143.41H1096.47V1210.87V1215.87H1091.47H1075.17H1070.17V1210.87V1143.41H1061.55V1210.87V1215.87H1056.55H1040.26H1035.26V1210.87V1143.41H1026.63V1210.87V1215.87H1021.63H1005.34H1000.34V1210.87V1143.41H991.716V1210.87V1215.87H986.716H970.422H965.422V1210.87V1143.41H956.799V1210.87V1215.87H951.799H935.505H930.505V1210.87V1143.41H921.883V1210.87V1215.87H916.883H900.588H895.588V1210.87V1143.41H886.965V1210.87V1215.87H881.965H865.671H860.671V1210.87V1143.41H852.049V1210.87V1215.87H847.049H825.279V1383.5H847.049H852.049V1388.5V1455.96H860.671V1388.5V1383.5H865.671H881.965H886.965V1388.5V1455.96H895.588V1388.5V1383.5H900.588H916.883H921.883V1388.5V1455.96H930.505V1388.5V1383.5H935.505H951.799H956.799V1388.5V1455.96H965.422V1388.5V1383.5H970.422H986.716H991.716V1388.5V1455.96H1000.34V1388.5V1383.5H1005.34H1021.63H1026.63V1388.5V1455.96H1035.26V1388.5V1383.5H1040.26H1056.55H1061.55V1388.5V1455.96H1070.17Z" fill="url(#paint16_linear_1509_16874)"/>
<path fill-rule="evenodd" clip-rule="evenodd" d="M1546.39 -29.8867V30.9262C1540.22 32.0964 1535.56 37.5162 1535.56 44.0255C1535.56 51.3893 1541.53 57.3589 1548.89 57.3589C1556.25 57.3589 1562.22 51.3893 1562.22 44.0255C1562.22 37.5162 1557.56 32.0964 1551.39 30.9262V-29.8867H1546.39ZM1476.39 32.6453V-19.5731H1481.39V32.6453C1487.56 33.8155 1492.22 39.2354 1492.22 45.7447C1492.22 53.1085 1486.25 59.078 1478.89 59.078C1471.53 59.078 1465.56 53.1085 1465.56 45.7447C1465.56 39.2354 1470.22 33.8155 1476.39 32.6453ZM1416.39 -10.9788V32.6452C1410.22 33.8154 1405.56 39.2352 1405.56 45.7445C1405.56 53.1083 1411.53 59.0779 1418.89 59.0779C1426.25 59.0779 1432.22 53.1083 1432.22 45.7445C1432.22 39.2352 1427.56 33.8154 1421.39 32.6452V-10.9788H1416.39ZM1343.06 -9.25953L1343.06 32.6456C1336.89 33.8158 1332.22 39.2357 1332.22 45.745C1332.22 53.1088 1338.19 59.0783 1345.56 59.0783C1352.92 59.0782 1358.89 53.1087 1358.89 45.7449C1358.89 39.2355 1354.22 33.8157 1348.06 32.6456L1348.06 -9.25956L1343.06 -9.25953Z" fill="url(#paint17_linear_1509_16874)"/>
<path fill-rule="evenodd" clip-rule="evenodd" d="M1887.5 -36.1104V27.4889C1881.33 28.659 1876.67 34.0789 1876.67 40.5882C1876.67 47.952 1882.64 53.9215 1890 53.9215C1897.36 53.9215 1903.33 47.952 1903.33 40.5882C1903.33 34.0789 1898.67 28.659 1892.5 27.4889V-36.1104H1887.5ZM1835.72 27.3773V-34.9005H1840.72V27.3773C1846.89 28.5475 1851.56 33.9674 1851.56 40.4767C1851.56 47.8405 1845.59 53.81 1838.22 53.81C1830.86 53.81 1824.89 47.8405 1824.89 40.4767C1824.89 33.9674 1829.55 28.5475 1835.72 27.3773ZM1730.83 -29.4437L1730.83 29.6504C1724.66 30.8205 1720 36.2404 1720 42.7497C1720 50.1135 1725.97 56.083 1733.33 56.083C1740.7 56.083 1746.67 50.1135 1746.67 42.7497C1746.67 36.2404 1742 30.8205 1735.83 29.6504L1735.83 -29.4437H1730.83ZM1779.72 -26.4489V30.9263C1773.55 32.0964 1768.89 37.5163 1768.89 44.0256C1768.89 51.3894 1774.86 57.3589 1782.22 57.3589C1789.59 57.3589 1795.56 51.3894 1795.56 44.0256C1795.56 37.5163 1790.89 32.0964 1784.72 30.9263V-26.4489H1779.72Z" fill="url(#paint18_linear_1509_16874)"/>
<path fill-rule="evenodd" clip-rule="evenodd" d="M1103.61 262.325V-9.25977H1098.61V261.629L929.873 541.114L929.513 541.71V542.406V650.261C923.344 651.431 918.68 656.851 918.68 663.36C918.68 670.724 924.649 676.694 932.013 676.694C939.377 676.694 945.346 670.724 945.346 663.36C945.346 656.851 940.682 651.431 934.513 650.261V543.103L1103.25 263.617L1103.61 263.021V262.325ZM994.109 0.158203V251.899L821.62 542.884L821.271 543.474V544.159V692.916C815.102 694.087 810.437 699.506 810.437 706.016C810.437 713.379 816.407 719.349 823.771 719.349C831.134 719.349 837.104 713.379 837.104 706.016C837.104 699.506 832.439 694.087 826.271 692.916V544.845L998.76 253.859L999.109 253.269V252.584V0.158203H994.109ZM1033.61 1.05371V260.606V261.314L1033.24 261.917L860.024 543.115V655.52C866.193 656.69 870.857 662.11 870.857 668.619C870.857 675.983 864.888 681.953 857.524 681.953C850.16 681.953 844.19 675.983 844.19 668.619C844.19 662.11 848.855 656.69 855.024 655.52V542.406V541.698L855.395 541.095L1028.61 259.898V1.05371H1033.61ZM1064.17 1.05371V259.908L892.631 542.863L892.269 543.461V544.159V691.164C886.1 692.334 881.435 697.754 881.435 704.263C881.435 711.627 887.405 717.596 894.769 717.596C902.132 717.596 908.102 711.627 908.102 704.263C908.102 697.754 903.437 692.334 897.269 691.164V544.858L1068.8 261.902L1069.17 261.305V260.606V1.05371H1064.17Z" fill="url(#paint19_linear_1509_16874)"/>
<path fill-rule="evenodd" clip-rule="evenodd" d="M1170.83 -9.25977V479.557C1164.66 480.727 1160 486.147 1160 492.656C1160 500.02 1165.97 505.989 1173.33 505.989C1180.7 505.989 1186.67 500.02 1186.67 492.656C1186.67 486.147 1182 480.727 1175.83 479.557V-9.25977H1170.83ZM1133.78 -3.34776V336.482C1127.61 337.652 1122.94 343.072 1122.94 349.581C1122.94 356.945 1128.91 362.914 1136.28 362.914C1143.64 362.914 1149.61 356.945 1149.61 349.581C1149.61 343.072 1144.95 337.652 1138.78 336.482V-3.34776H1133.78ZM1205.28 409.082V-2.6186H1210.28V409.082C1216.45 410.252 1221.11 415.672 1221.11 422.181C1221.11 429.545 1215.14 435.515 1207.78 435.515C1200.41 435.515 1194.44 429.545 1194.44 422.181C1194.44 415.672 1199.11 410.252 1205.28 409.082ZM1240.86 -8.60655V338.235C1234.69 339.405 1230.02 344.825 1230.02 351.334C1230.02 358.698 1235.99 364.667 1243.36 364.667C1250.72 364.667 1256.69 358.698 1256.69 351.334C1256.69 344.825 1252.02 339.405 1245.86 338.235V-8.60655H1240.86Z" fill="url(#paint20_linear_1509_16874)"/>
<path fill-rule="evenodd" clip-rule="evenodd" d="M1519.78 662.776V667.776V682.317V687.317H1514.78H1456.11H1451.11V682.317V268.102V263.102H1456.11H1514.78H1519.78V268.102V283.811V288.811H1524.78H1589.27H1594.27V293.811V298.05H1921.11V303.05H1594.27V307.184V312.184H1589.27H1524.78H1519.78V317.184V318.871V323.871H1524.78H1589.27H1594.27V328.871V333.605H1930V338.605H1594.27V342.244V347.244H1589.27H1524.78H1519.78V352.244V353.93V358.93H1524.78H1589.27H1594.27V363.93V368.116H1922.49V373.116H1594.27V377.303V382.303H1589.27H1524.78H1519.78V387.303V388.989V393.989H1524.78H1589.27H1594.27V398.989V403.605H1930L1930 408.605H1594.27V412.362V417.362H1589.27H1524.78H1519.78V422.362V424.048V429.048H1524.78H1589.27H1594.27V434.048V438.05H1926.67V443.05H1594.27V447.421V452.421H1589.27H1524.78H1519.78V457.421V459.107V464.107H1524.78H1589.27H1594.27V469.107V473.605H1930V478.605H1594.27V482.48V487.48H1589.27H1524.78H1519.78V492.48V494.167V499.167H1524.78H1589.27H1594.27V504.167V508.05H1922.22V513.05H1594.27V517.539V522.539H1589.27H1524.78H1519.78V527.539V529.226V534.226H1524.78H1589.27H1594.27V539.226V543.605H1926.67V548.605H1594.27V552.599V557.599H1589.27H1524.78H1519.78V562.599V564.285V569.285H1524.78H1589.27H1594.27V574.285V578.05H1930V583.05H1594.27V587.658V592.658H1589.27H1524.78H1519.78V597.658V599.344V604.344H1524.78H1589.27H1594.27V609.344V613.605H1930V618.605H1594.27V622.717V627.717H1589.27H1524.78H1519.78V632.717V634.403V639.403H1524.78H1589.27H1594.27V644.403V648.05H1931.11V653.05H1594.27V657.776V662.776H1589.27H1524.78H1519.78ZM1514.78 662.776V682.317H1456.11V268.102H1514.78V288.811V293.811H1519.78H1589.27V307.184H1519.78H1514.78V312.184V323.871V328.871H1519.78H1589.27V342.244H1519.78H1514.78V347.244V358.93V363.93H1519.78H1589.27V377.303H1519.78H1514.78V382.303V393.989V398.989H1519.78H1589.27V412.362H1519.78H1514.78V417.362V429.048V434.048H1519.78H1589.27V447.421H1519.78H1514.78V452.421V464.107V469.107H1519.78H1589.27V482.48H1519.78H1514.78V487.48V499.167V504.167H1519.78H1589.27V517.539H1519.78H1514.78V522.539V534.226V539.226H1519.78H1589.27V552.599H1519.78H1514.78V557.599V569.285V574.285H1519.78H1589.27V587.658H1519.78H1514.78V592.658V604.344V609.344H1519.78H1589.27V622.717H1519.78H1514.78V627.717V639.403V644.403H1519.78H1589.27V657.776H1519.78H1514.78V662.776Z" fill="url(#paint21_linear_1509_16874)"/>
<path d="M1000.73 544.159C1000.73 551.523 1006.7 557.492 1014.07 557.492C1021.43 557.492 1027.4 551.523 1027.4 544.159C1027.4 536.795 1021.43 530.826 1014.07 530.826C1006.7 530.826 1000.73 536.795 1000.73 544.159ZM1312.61 544.159V546.659H1315.11L1315.11 544.157L1312.61 544.159ZM1312.22 110.55V108.05H1309.72L1309.72 110.552L1312.22 110.55ZM1014.07 546.659H1312.61V541.659H1014.07V546.659ZM1315.11 544.157L1314.72 110.548L1309.72 110.552L1310.11 544.161L1315.11 544.157ZM1312.22 113.05H1923.33V108.05H1312.22V113.05Z" fill="url(#paint22_linear_1509_16874)"/>
<path d="M1351.67 147.217V144.717H1349.17L1349.17 147.216L1351.67 147.217ZM1351.6 579.803V582.303H1354.1L1354.1 579.803L1351.6 579.803ZM1034.49 579.803C1034.49 587.167 1040.46 593.136 1047.82 593.136C1055.18 593.136 1061.15 587.167 1061.15 579.803C1061.15 572.439 1055.18 566.47 1047.82 566.47C1040.46 566.47 1034.49 572.439 1034.49 579.803ZM1926.67 144.717H1351.67V149.717H1926.67V144.717ZM1349.17 147.216L1349.1 579.802L1354.1 579.803L1354.17 147.217L1349.17 147.216ZM1351.6 577.303H1047.82V582.303H1351.6V577.303Z" fill="url(#paint23_linear_1509_16874)"/>
<path d="M1070 622.432C1070 629.796 1075.97 635.766 1083.33 635.766C1090.7 635.766 1096.67 629.796 1096.67 622.432C1096.67 615.069 1090.7 609.099 1083.33 609.099C1075.97 609.099 1070 615.069 1070 622.432ZM1378.95 622.432V624.932H1381.45V622.432H1378.95ZM1378.95 183.884V181.384H1376.45V183.884H1378.95ZM1083.33 624.932H1378.95V619.932H1083.33V624.932ZM1381.45 622.432V183.884H1376.45V622.432H1381.45ZM1378.95 186.384H1932.22V181.384H1378.95V186.384Z" fill="url(#paint24_linear_1509_16874)"/>
<path d="M1421.43 219.439V216.939H1418.93V219.439H1421.43ZM1421.43 667.124V669.624H1423.93V667.124H1421.43ZM1106.11 667.124C1106.11 674.488 1112.08 680.457 1119.44 680.457C1126.81 680.457 1132.78 674.488 1132.78 667.124C1132.78 659.76 1126.81 653.79 1119.44 653.79C1112.08 653.79 1106.11 659.76 1106.11 667.124ZM1921.11 216.939H1421.43V221.939H1921.11V216.939ZM1418.93 219.439V667.124H1423.93V219.439H1418.93ZM1421.43 664.624H1119.44V669.624H1421.43V664.624Z" fill="url(#paint25_linear_1509_16874)"/>
<path d="M1385.98 1072.97C1385.98 1080.33 1391.95 1086.3 1399.32 1086.3C1406.68 1086.3 1412.65 1080.33 1412.65 1072.97C1412.65 1065.6 1406.68 1059.63 1399.32 1059.63C1391.95 1059.63 1385.98 1065.6 1385.98 1072.97ZM1484.28 1072.97L1485.9 1071.06L1485.2 1070.47H1484.28V1072.97ZM1854.44 1386.11L1852.83 1388.01L1853.53 1388.61H1854.44V1386.11ZM1399.32 1075.47H1484.28V1070.47H1399.32V1075.47ZM1482.67 1074.88L1852.83 1388.01L1856.06 1384.2L1485.9 1071.06L1482.67 1074.88ZM1854.44 1388.61H1926.67V1383.61H1854.44V1388.61Z" fill="url(#paint26_linear_1509_16874)"/>
<path d="M1853.33 1348.33L1851.71 1350.23L1852.41 1350.83H1853.33V1348.33ZM1489.52 1037.32L1491.14 1035.42L1490.44 1034.82H1489.52V1037.32ZM1420.9 1037.32C1420.9 1044.69 1426.87 1050.66 1434.23 1050.66C1441.6 1050.66 1447.57 1044.69 1447.57 1037.32C1447.57 1029.96 1441.6 1023.99 1434.23 1023.99C1426.87 1023.99 1420.9 1029.96 1420.9 1037.32ZM1932.22 1345.83H1853.33V1350.83H1932.22V1345.83ZM1854.96 1346.43L1491.14 1035.42L1487.89 1039.22L1851.71 1350.23L1854.96 1346.43ZM1489.52 1034.82H1434.23V1039.82H1489.52V1034.82Z" fill="url(#paint27_linear_1509_16874)"/>
<path d="M1352.23 1000.51C1352.23 1007.88 1358.2 1013.85 1365.56 1013.85C1372.93 1013.85 1378.9 1007.88 1378.9 1000.51C1378.9 993.149 1372.93 987.179 1365.56 987.179C1358.2 987.179 1352.23 993.149 1352.23 1000.51ZM1488.36 1000.51L1490 998.627L1489.29 998.013H1488.36V1000.51ZM1853.33 1318.33L1851.69 1320.21L1852.4 1320.83H1853.33V1318.33ZM1365.56 1003.01H1488.36V998.013H1365.56V1003.01ZM1486.71 1002.4L1851.69 1320.21L1854.98 1316.44L1490 998.627L1486.71 1002.4ZM1853.33 1320.83H1928.33V1315.83H1853.33V1320.83Z" fill="url(#paint28_linear_1509_16874)"/>
<path d="M1853.33 1281.66L1851.7 1283.55L1852.4 1284.16H1853.33V1281.66ZM1489.52 967.791L1491.15 965.898L1490.45 965.291H1489.52V967.791ZM1419.74 967.791C1419.74 975.155 1425.71 981.124 1433.07 981.124C1440.43 981.124 1446.4 975.155 1446.4 967.791C1446.4 960.427 1440.43 954.458 1433.07 954.458C1425.71 954.458 1419.74 960.427 1419.74 967.791ZM1926.67 1279.16H1853.33V1284.16H1926.67V1279.16ZM1854.97 1279.77L1491.15 965.898L1487.89 969.684L1851.7 1283.55L1854.97 1279.77ZM1489.52 965.291H1433.07V970.291H1489.52V965.291Z" fill="url(#paint29_linear_1509_16874)"/>
<path d="M1388.31 930.979C1388.31 938.342 1394.28 944.312 1401.64 944.312C1409.01 944.312 1414.98 938.342 1414.98 930.979C1414.98 923.615 1409.01 917.645 1401.64 917.645C1394.28 917.645 1388.31 923.615 1388.31 930.979ZM1486.61 930.979L1488.24 929.08L1487.53 928.479H1486.61V930.979ZM1854.44 1246.11L1852.82 1248L1853.52 1248.61H1854.44V1246.11ZM1401.64 933.479H1486.61V928.479H1401.64V933.479ZM1484.98 932.877L1852.82 1248L1856.07 1244.21L1488.24 929.08L1484.98 932.877ZM1854.44 1248.61H1927.78V1243.61H1854.44V1248.61Z" fill="url(#paint30_linear_1509_16874)"/>
<path d="M1855.56 1210.55L1853.93 1212.45L1854.63 1213.05H1855.56V1210.55ZM1489.52 897.088L1491.15 895.189L1490.44 894.588H1489.52V897.088ZM1418.57 897.088C1418.57 904.452 1424.54 910.421 1431.91 910.421C1439.27 910.421 1445.24 904.452 1445.24 897.088C1445.24 889.724 1439.27 883.755 1431.91 883.755C1424.54 883.755 1418.57 889.724 1418.57 897.088ZM1926.11 1208.05H1855.56V1213.05H1926.11V1208.05ZM1857.18 1208.65L1491.15 895.189L1487.89 898.987L1853.93 1212.45L1857.18 1208.65ZM1489.52 894.588H1431.91V899.588H1489.52V894.588Z" fill="url(#paint31_linear_1509_16874)"/>
<path fill-rule="evenodd" clip-rule="evenodd" d="M1419.68 1614.25V1609.25H1424.68H1486.85H1491.85V1604.25V1601.35H1630.04L1856.19 1786.93L1856.88 1787.49H1857.78H1925.56V1782.49H1858.67L1632.52 1596.92L1631.83 1596.35H1630.93H1491.85V1592.05V1587.05H1486.85H1424.68H1419.68V1582.05V1578.03V1573.03H1424.68H1486.85H1491.85V1568.03V1564.54H1629.45L1850.63 1748.03L1851.32 1748.61H1852.22H1925.56V1743.61H1853.12L1631.95 1560.12L1631.25 1559.54H1630.35H1491.85V1555.82V1550.82H1486.85H1424.68H1419.68V1545.82V1543.09V1538.09H1424.68H1486.85H1491.85V1533.09V1528.9H1630.06L1857.89 1709.18L1858.58 1709.72H1859.44H1859.55H1859.65H1859.76H1859.87H1859.97H1860.08H1860.19H1860.3H1860.4H1860.51H1860.62H1860.73H1860.84H1860.95H1861.06H1861.17H1861.29H1861.4H1861.51H1861.62H1861.74H1861.85H1861.96H1862.08H1862.19H1862.31H1862.42H1862.54H1862.66H1862.77H1862.89H1863.01H1863.13H1863.25H1863.36H1863.48H1863.6H1863.72H1863.84H1863.96H1864.08H1864.21H1864.33H1864.45H1864.57H1864.69H1864.82H1864.94H1865.06H1865.19H1865.31H1865.44H1865.56H1865.69H1865.81H1865.94H1866.07H1866.19H1866.32H1866.45H1866.58H1866.7H1866.83H1866.96H1867.09H1867.22H1867.35H1867.48H1867.61H1867.74H1867.87H1868H1868.13H1868.26H1868.4H1868.53H1868.66H1868.79H1868.93H1869.06H1869.19H1869.33H1869.46H1869.59H1869.73H1869.86H1870H1870.13H1870.27H1870.41H1870.54H1870.68H1870.82H1870.95H1871.09H1871.23H1871.36H1871.5H1871.64H1871.78H1871.92H1872.06H1872.19H1872.33H1872.47H1872.61H1872.75H1872.89H1873.03H1873.17H1873.31H1873.46H1873.6H1873.74H1873.88H1874.02H1874.16H1874.3H1874.45H1874.59H1874.73H1874.87H1875.02H1875.16H1875.3H1875.45H1875.59H1875.74H1875.88H1876.02H1876.17H1876.31H1876.46H1876.6H1876.75H1876.89H1877.04H1877.18H1877.33H1877.47H1877.62H1877.77H1877.91H1878.06H1878.2H1878.35H1878.5H1878.64H1878.79H1878.94H1879.08H1879.23H1879.38H1879.53H1879.67H1879.82H1879.97H1880.12H1880.26H1880.41H1880.56H1880.71H1880.86H1881.01H1881.15H1881.3H1881.45H1881.6H1881.75H1881.9H1882.05H1882.2H1882.34H1882.49H1882.64H1882.79H1882.94H1883.09H1883.24H1883.39H1883.54H1883.69H1883.84H1883.99H1884.14H1884.29H1884.44H1884.59H1884.74H1884.89H1885.04H1885.19H1885.34H1885.49H1885.64H1885.79H1885.94H1886.09H1886.24H1886.39H1886.54H1886.69H1886.84H1886.99H1887.14H1887.29H1887.44H1887.59H1887.74H1887.89H1888.04H1888.19H1888.34H1888.49H1888.64H1888.79H1888.94H1889.09H1889.24H1889.39H1889.54H1889.68H1889.83H1889.98H1890.13H1890.28H1890.43H1890.58H1890.73H1890.88H1891.03H1891.18H1891.33H1891.48H1891.63H1891.77H1891.92H1892.07H1892.22H1892.37H1892.52H1892.67H1892.81H1892.96H1893.11H1893.26H1893.41H1893.55H1893.7H1893.85H1894H1894.14H1894.29H1894.44H1894.59H1894.73H1894.88H1895.03H1895.17H1895.32H1895.47H1895.61H1895.76H1895.9H1896.05H1896.19H1896.34H1896.49H1896.63H1896.78H1896.92H1897.07H1897.21H1897.35H1897.5H1897.64H1897.79H1897.93H1898.07H1898.22H1898.36H1898.5H1898.65H1898.79H1898.93H1899.08H1899.22H1899.36H1899.5H1899.64H1899.78H1899.93H1900.07H1900.21H1900.35H1900.49H1900.63H1900.77H1900.91H1901.05H1901.19H1901.33H1901.47H1901.6H1901.74H1901.88H1902.02H1902.16H1902.29H1902.43H1902.57H1902.71H1902.84H1902.98H1903.11H1903.25H1903.39H1903.52H1903.66H1903.79H1903.93H1904.06H1904.19H1904.33H1904.46H1904.59H1904.73H1904.86H1904.99H1905.12H1905.26H1905.39H1905.52H1905.65H1905.78H1905.91H1906.04H1906.17H1906.3H1906.43H1906.56H1906.69H1906.82H1906.94H1907.07H1907.2H1907.33H1907.45H1907.58H1907.7H1907.83H1907.96H1908.08H1908.21H1908.33H1908.45H1908.58H1908.7H1908.82H1908.95H1909.07H1909.19H1909.31H1909.43H1909.55H1909.68H1909.8H1909.92H1910.03H1910.15H1910.27H1910.39H1910.51H1910.63H1910.74H1910.86H1910.98H1911.09H1911.21H1911.32H1911.44H1911.55H1911.67H1911.78H1911.89H1912.01H1912.12H1912.23H1912.34H1912.45H1912.56H1912.68H1912.78H1912.89H1913H1913.11H1913.22H1913.33H1913.44H1913.54H1913.65H1913.76H1913.86H1913.97H1914.07H1914.17H1914.28H1914.38H1914.48H1914.59H1914.69H1914.79H1914.89H1914.99H1915.09H1915.19H1915.29H1915.39H1915.49H1915.59H1915.68H1915.78H1915.88H1915.97H1916.07H1916.16H1916.26H1916.35H1916.44H1916.54H1916.63H1916.72H1916.81H1916.9H1916.99H1917.08H1917.17H1917.26H1917.35H1917.44H1917.52H1917.61H1917.7H1917.78H1917.87H1917.95H1918.03H1918.12H1918.2H1918.28H1918.37H1918.45H1918.53H1918.61H1918.69H1918.77H1918.84H1918.92H1919H1919.08H1919.15H1919.23H1919.3H1919.38H1919.45H1919.52H1919.6H1919.67H1919.74H1919.81H1919.88H1919.95H1920.02H1920.09H1920.16H1920.22H1920.29H1920.36H1920.42H1920.49H1920.55H1920.61H1920.68H1920.74H1920.8H1920.86H1920.92H1920.98H1921.04H1921.1H1921.16H1921.22H1921.27H1921.33H1921.38H1921.44H1921.49H1921.55H1921.6H1921.65H1921.7H1921.75H1921.8H1921.85H1921.9H1921.95H1922H1922.04H1922.09H1922.13H1922.18H1922.22V1704.72H1922.18H1922.13H1922.09H1922.04H1922H1921.95H1921.9H1921.85H1921.8H1921.75H1921.7H1921.65H1921.6H1921.55H1921.49H1921.44H1921.38H1921.33H1921.27H1921.22H1921.16H1921.1H1921.04H1920.98H1920.92H1920.86H1920.8H1920.74H1920.68H1920.61H1920.55H1920.49H1920.42H1920.36H1920.29H1920.22H1920.16H1920.09H1920.02H1919.95H1919.88H1919.81H1919.74H1919.67H1919.6H1919.52H1919.45H1919.38H1919.3H1919.23H1919.15H1919.08H1919H1918.92H1918.84H1918.77H1918.69H1918.61H1918.53H1918.45H1918.37H1918.28H1918.2H1918.12H1918.03H1917.95H1917.87H1917.78H1917.7H1917.61H1917.52H1917.44H1917.35H1917.26H1917.17H1917.08H1916.99H1916.9H1916.81H1916.72H1916.63H1916.54H1916.44H1916.35H1916.26H1916.16H1916.07H1915.97H1915.88H1915.78H1915.68H1915.59H1915.49H1915.39H1915.29H1915.19H1915.09H1914.99H1914.89H1914.79H1914.69H1914.59H1914.48H1914.38H1914.28H1914.17H1914.07H1913.97H1913.86H1913.76H1913.65H1913.54H1913.44H1913.33H1913.22H1913.11H1913H1912.89H1912.78H1912.68H1912.56H1912.45H1912.34H1912.23H1912.12H1912.01H1911.89H1911.78H1911.67H1911.55H1911.44H1911.32H1911.21H1911.09H1910.98H1910.86H1910.74H1910.63H1910.51H1910.39H1910.27H1910.15H1910.03H1909.92H1909.8H1909.68H1909.55H1909.43H1909.31H1909.19H1909.07H1908.95H1908.82H1908.7H1908.58H1908.45H1908.33H1908.21H1908.08H1907.96H1907.83H1907.7H1907.58H1907.45H1907.33H1907.2H1907.07H1906.94H1906.82H1906.69H1906.56H1906.43H1906.3H1906.17H1906.04H1905.91H1905.78H1905.65H1905.52H1905.39H1905.26H1905.12H1904.99H1904.86H1904.73H1904.59H1904.46H1904.33H1904.19H1904.06H1903.93H1903.79H1903.66H1903.52H1903.39H1903.25H1903.11H1902.98H1902.84H1902.71H1902.57H1902.43H1902.29H1902.16H1902.02H1901.88H1901.74H1901.6H1901.47H1901.33H1901.19H1901.05H1900.91H1900.77H1900.63H1900.49H1900.35H1900.21H1900.07H1899.93H1899.78H1899.64H1899.5H1899.36H1899.22H1899.08H1898.93H1898.79H1898.65H1898.5H1898.36H1898.22H1898.07H1897.93H1897.79H1897.64H1897.5H1897.35H1897.21H1897.07H1896.92H1896.78H1896.63H1896.49H1896.34H1896.19H1896.05H1895.9H1895.76H1895.61H1895.47H1895.32H1895.17H1895.03H1894.88H1894.73H1894.59H1894.44H1894.29H1894.14H1894H1893.85H1893.7H1893.55H1893.41H1893.26H1893.11H1892.96H1892.81H1892.67H1892.52H1892.37H1892.22H1892.07H1891.92H1891.77H1891.63H1891.48H1891.33H1891.18H1891.03H1890.88H1890.73H1890.58H1890.43H1890.28H1890.13H1889.98H1889.83H1889.68H1889.54H1889.39H1889.24H1889.09H1888.94H1888.79H1888.64H1888.49H1888.34H1888.19H1888.04H1887.89H1887.74H1887.59H1887.44H1887.29H1887.14H1886.99H1886.84H1886.69H1886.54H1886.39H1886.24H1886.09H1885.94H1885.79H1885.64H1885.49H1885.34H1885.19H1885.04H1884.89H1884.74H1884.59H1884.44H1884.29H1884.14H1883.99H1883.84H1883.69H1883.54H1883.39H1883.24H1883.09H1882.94H1882.79H1882.64H1882.49H1882.34H1882.2H1882.05H1881.9H1881.75H1881.6H1881.45H1881.3H1881.15H1881.01H1880.86H1880.71H1880.56H1880.41H1880.26H1880.12H1879.97H1879.82H1879.67H1879.53H1879.38H1879.23H1879.08H1878.94H1878.79H1878.64H1878.5H1878.35H1878.2H1878.06H1877.91H1877.77H1877.62H1877.47H1877.33H1877.18H1877.04H1876.89H1876.75H1876.6H1876.46H1876.31H1876.17H1876.02H1875.88H1875.74H1875.59H1875.45H1875.3H1875.16H1875.02H1874.87H1874.73H1874.59H1874.45H1874.3H1874.16H1874.02H1873.88H1873.74H1873.6H1873.46H1873.31H1873.17H1873.03H1872.89H1872.75H1872.61H1872.47H1872.33H1872.19H1872.06H1871.92H1871.78H1871.64H1871.5H1871.36H1871.23H1871.09H1870.95H1870.82H1870.68H1870.54H1870.41H1870.27H1870.13H1870H1869.86H1869.73H1869.59H1869.46H1869.33H1869.19H1869.06H1868.93H1868.79H1868.66H1868.53H1868.4H1868.26H1868.13H1868H1867.87H1867.74H1867.61H1867.48H1867.35H1867.22H1867.09H1866.96H1866.83H1866.7H1866.58H1866.45H1866.32H1866.19H1866.07H1865.94H1865.81H1865.69H1865.56H1865.44H1865.31H1865.19H1865.06H1864.94H1864.82H1864.69H1864.57H1864.45H1864.33H1864.21H1864.08H1863.96H1863.84H1863.72H1863.6H1863.48H1863.36H1863.25H1863.13H1863.01H1862.89H1862.77H1862.66H1862.54H1862.42H1862.31H1862.19H1862.08H1861.96H1861.85H1861.74H1861.62H1861.51H1861.4H1861.29H1861.17H1861.06H1860.95H1860.84H1860.73H1860.62H1860.51H1860.4H1860.31L1632.48 1524.44L1631.8 1523.9H1630.93H1491.85V1520.88V1515.88H1486.85H1424.68H1419.68V1510.88V1508.03V1503.03H1424.68H1486.85H1491.85V1498.03V1493.84H1631.79L1855.09 1674.72L1855.78 1675.27H1856.67H1931.11V1670.27H1857.55L1634.25 1489.4L1633.56 1488.84H1632.68H1491.85V1485.82V1480.82H1486.85H1424.68H1419.68V1475.82V1459.99V1454.99H1414.68H1351.36H1346.36V1459.99V1633.47V1638.47H1351.36H1414.68H1419.68V1633.47V1614.25ZM1486.85 1533.09V1528.9H1486.61V1523.9H1486.85V1520.88H1419.68H1414.68V1515.88V1503.03V1498.03H1419.68H1486.85V1485.82H1419.68H1414.68V1480.82V1459.99H1351.36V1633.47H1414.68V1609.25V1604.25H1419.68H1486.85V1592.05H1419.68H1414.68V1587.05V1573.03V1568.03H1419.68H1486.85V1555.82H1419.68H1414.68V1550.82V1538.09V1533.09H1419.68H1486.85Z" fill="url(#paint32_linear_1509_16874)"/>
<path fill-rule="evenodd" clip-rule="evenodd" d="M1419.68 1367.79V1362.79H1424.68H1486.85H1491.85V1357.79V1353.6H1523.51L1851.02 1635.81L1851.73 1636.41H1852.65H1922.22V1631.41H1853.58L1526.07 1349.21L1525.36 1348.6H1524.44H1491.85V1345.59V1340.59H1486.85H1424.68H1419.68V1335.59V1331.56V1326.56H1424.68H1486.85H1491.85V1321.56V1316.79H1525.82L1849.46 1601.32L1850.17 1601.94H1851.11H1926.67V1596.94H1852.05L1528.41 1312.41L1527.71 1311.79H1526.76H1491.85V1309.36V1304.36H1486.85H1424.68H1419.68V1299.36V1295.34V1290.34H1424.68H1486.85H1491.85V1285.34V1281.15H1520.61L1855.05 1563.57L1855.75 1564.16H1856.67H1924.44V1559.16H1857.58L1523.14 1276.74L1522.44 1276.15H1521.53H1491.85V1273.13V1268.13H1486.85H1424.68H1419.68V1263.13V1260.28V1255.28H1424.68H1486.85H1491.85V1250.28V1246.09H1521.21L1863.97 1528.04L1864.66 1528.61H1865.56H1940V1523.61H1866.45L1523.7 1241.66L1523 1241.09H1522.11H1491.85V1238.07V1233.07H1486.85H1424.68H1419.68V1228.07V1213.53V1208.53H1414.68H1351.36H1346.36V1213.53V1387.01V1392.01H1351.36H1414.68H1419.68V1387.01V1367.79ZM1414.68 1387.01V1362.79V1357.79H1419.68H1486.85V1345.59H1419.68H1414.68V1340.59V1326.56V1321.56H1419.68H1486.85V1309.36H1419.68H1414.68V1304.36V1290.34V1285.34H1419.68H1486.85V1273.13H1419.68H1414.68V1268.13V1255.28V1250.28H1419.68H1486.85V1238.07H1419.68H1414.68V1233.07V1213.53H1351.36V1387.01H1414.68Z" fill="url(#paint33_linear_1509_16874)"/>
<path fill-rule="evenodd" clip-rule="evenodd" d="M542.222 51.6066C542.222 45.0973 546.887 39.6774 553.056 38.5073V-11.8379H558.056V38.5073C564.225 39.6774 568.889 45.0973 568.889 51.6066C568.889 58.9704 562.92 64.9399 555.556 64.9399C548.192 64.9399 542.222 58.9704 542.222 51.6066ZM37.1768 51.5784C37.1768 45.069 41.8413 39.6492 48.0101 38.479V-11.5281H53.0101V38.479C59.1789 39.6492 63.8434 45.069 63.8434 51.5784C63.8434 58.9421 57.8739 64.9117 50.5101 64.9117C43.1463 64.9117 37.1768 58.9421 37.1768 51.5784ZM137.222 47.4637C137.222 40.9543 141.887 35.5345 148.056 34.3643V-11.5281H153.056V34.3643C159.224 35.5345 163.889 40.9543 163.889 47.4637C163.889 54.8275 157.919 60.797 150.556 60.797C143.192 60.797 137.222 54.8275 137.222 47.4637ZM419.722 30.9266C413.553 32.0968 408.889 37.5167 408.889 44.026C408.889 51.3898 414.858 57.3593 422.222 57.3593C429.586 57.3593 435.556 51.3898 435.556 44.026C435.556 37.5167 430.891 32.0968 424.722 30.9266V-10.9785H419.722V30.9266Z" fill="url(#paint34_linear_1509_16874)"/>
<path fill-rule="evenodd" clip-rule="evenodd" d="M681.945 -7.54102V10.5073V11.6208L681.117 12.3656L570.55 111.868L569.836 112.51H568.877H440.849V107.51H567.918L676.945 9.39387V-7.54102H681.945ZM219.708 203.175V208.175H214.708H150.219H145.219V213.175V216.939H-26.6665V221.939H145.219V226.548V231.548H150.219H214.708H219.708V236.548V256.933V261.933H224.708H363.687H368.687V256.933V235.38V230.38H373.687H435.848H440.848V225.38V220.024H579.934H580.97L581.702 219.292L792.88 7.97695L793.611 7.24481V6.20975V-3.24414H788.611V5.1747L578.898 215.024H440.848V212.007V207.007H435.848H373.687H368.687V202.007V199.152V194.152H373.687H435.848H440.848V189.152V184.965H577.606H578.641L579.373 184.233L755.656 7.97773L756.389 7.24547V6.20982V-4.10352H751.389V5.17417L576.57 179.965H440.848V175.779V170.779H435.848H373.687H368.687V165.779V162.924V157.924H373.687H435.848H440.848V152.924V139.551V134.551H435.848H373.687H368.687V129.551V126.696V121.696H373.687H435.848H440.848V116.696V103.323V98.3234H435.848H373.687H368.687V93.3234V74.1074V69.1074H363.687H224.708H219.708V74.1074V94.492V99.492H214.708H150.219H145.219V104.492V108.05H-34.4443L-34.4443 113.05H145.219V117.865V122.865H150.219H214.708H219.708V127.865V130.72V135.72H214.708H150.219H145.219V140.72V144.717H-34.4443L-34.4443 149.717H145.219V154.093V159.093H150.219H214.708H219.708V164.093V166.948V171.948H214.708H150.219H145.219V176.948V181.384L-34.4443 181.384L-34.4443 186.384L145.219 186.384V190.32V195.32H150.219H214.708H219.708V200.32V203.175ZM150.219 190.32H219.708H224.708V195.32V208.175V213.175H219.708H150.219V226.548H219.708H224.708V231.548V256.933H363.687V230.38V225.38H368.687H435.848V212.007H368.687H363.687V207.007V194.152V189.152H368.687H435.848V175.779H368.687H363.687V170.779V157.924V152.924H368.687H435.848V139.551H368.687H363.687V134.551V121.696V116.696H368.687H435.848V103.323H368.687H363.687V98.3234V74.1074H224.708V99.492V104.492H219.708H150.219V117.865H219.708H224.708V122.865V135.72V140.72H219.708H150.219V154.093H219.708H224.708V159.093V171.948V176.948H219.708H150.219V190.32ZM720.834 7.92899V-7.54102H715.834V6.85643L573.116 142.569H440.849V147.569H574.115H575.114L575.838 146.881L720.056 9.74066L720.834 9.00156V7.92899Z" fill="url(#paint35_linear_1509_16874)"/>
<path fill-rule="evenodd" clip-rule="evenodd" d="M396.62 573.117H401.62V568.117V558.208C401.62 541.916 414.828 528.708 431.12 528.708H442.429C458.721 528.708 471.929 541.916 471.929 558.208V668.01C471.929 684.302 458.721 697.51 442.429 697.51H431.12C414.828 697.51 401.62 684.302 401.62 668.01V663.945V658.945H396.62H335.278V645.572H396.62H401.62V640.572V626.549V621.549H396.62H335.278V608.176H396.62H401.62V603.176V591.49V586.49H396.62H335.278V573.117H396.62ZM396.62 591.49H391.62H335.278H330.278V586.49V583.05L-10.0001 583.05V578.05L330.278 578.05V573.117V568.117H335.278H391.62H396.62V563.117V558.208C396.62 539.154 412.066 523.708 431.12 523.708H442.429C461.483 523.708 476.929 539.154 476.929 558.208V668.01C476.929 687.063 461.483 702.51 442.429 702.51H431.12C412.066 702.51 396.62 687.063 396.62 668.01V663.945H391.62H335.278H330.278V658.945V653.062H-11.3257V648.062H330.278V645.572V640.572H335.278H391.62H396.62V635.572V631.549V626.549H391.62H335.278H330.278V621.549V618.606L-20 618.606L-19.9999 613.606L330.278 613.606V608.176V603.176H335.278H391.62H396.62V598.176V596.49V591.49Z" fill="url(#paint36_linear_1509_16874)"/>
<path d="M-10 722.773H472.222L577.024 649.921V544.159L856.667 108.466V-10.1191" stroke="url(#paint37_linear_1509_16874)" stroke-width="5"/>
<path d="M892.222 0.143555V105.905L613.105 542.406V654.595L478.889 756.105H-6.6665" stroke="url(#paint38_linear_1509_16874)" stroke-width="5"/>
<path d="M0 791.661H472.222L645.112 668.619V545.912L925.555 104.186V-2.38477" stroke="url(#paint39_linear_1509_16874)" stroke-width="5"/>
<path d="M963.333 1.91309V110.596L685.849 542.406V678.553L475.556 827.217H-3.33301" stroke="url(#paint40_linear_1509_16874)" stroke-width="5"/>
<path fill-rule="evenodd" clip-rule="evenodd" d="M-11.111 368.05H619.123C620.293 361.881 625.713 357.217 632.222 357.217C639.586 357.217 645.556 363.186 645.556 370.55C645.556 377.914 639.586 383.883 632.222 383.883C625.713 383.883 620.293 379.219 619.123 373.05H-11.111V368.05ZM478.012 403.606H-11.111V408.606H478.012C479.182 414.775 484.602 419.439 491.111 419.439C498.475 419.439 504.445 413.469 504.445 406.106C504.445 398.742 498.475 392.772 491.111 392.772C484.602 392.772 479.182 397.437 478.012 403.606ZM-12.2221 438.05H579.123C580.293 431.881 585.713 427.217 592.222 427.217C599.586 427.217 605.556 433.186 605.556 440.55C605.556 447.914 599.586 453.883 592.222 453.883C585.713 453.883 580.293 449.219 579.123 443.05H-12.2221V438.05ZM443.567 473.606H-12.2221V478.606H443.567C444.738 484.774 450.157 489.439 456.667 489.439C464.031 489.439 470 483.469 470 476.106C470 468.742 464.031 462.772 456.667 462.772C450.157 462.772 444.738 467.437 443.567 473.606ZM339.123 508.05H-14.4443V513.05H339.123C340.293 519.219 345.713 523.883 352.222 523.883C359.586 523.883 365.556 517.914 365.556 510.55C365.556 503.186 359.586 497.217 352.222 497.217C345.713 497.217 340.293 501.881 339.123 508.05Z" fill="url(#paint41_linear_1509_16874)"/>
<path d="M613.334 336.106V338.606H614.436L615.179 337.792L613.334 336.106ZM718.49 206.423C718.49 213.787 724.459 219.756 731.823 219.756C739.187 219.756 745.156 213.787 745.156 206.423C745.156 199.059 739.187 193.09 731.823 193.09C724.459 193.09 718.49 199.059 718.49 206.423ZM-8.88867 338.606H613.334V333.606H-8.88867V338.606ZM615.179 337.792L733.669 208.109L729.977 204.737L611.488 334.42L615.179 337.792Z" fill="url(#paint42_linear_1509_16874)"/>
<path d="M582.222 300.551V303.051H583.35L584.096 302.205L582.222 300.551ZM648.655 210.226C648.655 217.589 654.625 223.559 661.989 223.559C669.353 223.559 675.322 217.589 675.322 210.226C675.322 202.862 669.353 196.892 661.989 196.892C654.625 196.892 648.655 202.862 648.655 210.226ZM-13.333 303.051H582.222V298.051H-13.333V303.051ZM584.096 302.205L663.863 211.88L660.115 208.571L580.349 298.896L584.096 302.205Z" fill="url(#paint43_linear_1509_16874)"/>
<path d="M365.556 546.106V548.606H366.262L366.865 548.236L365.556 546.106ZM414.765 515.862L414.765 513.362L414.058 513.362L413.456 513.732L414.765 515.862ZM496.729 515.861C496.729 523.225 502.699 529.195 510.062 529.195C517.426 529.195 523.396 523.225 523.396 515.861C523.396 508.498 517.426 502.528 510.062 502.528C502.699 502.528 496.729 508.498 496.729 515.861ZM-12.2222 548.606H365.556V543.606H-12.2222V548.606ZM366.865 548.236L416.074 517.992L413.456 513.732L364.247 543.976L366.865 548.236ZM414.765 518.362L510.062 518.361L510.062 513.361L414.765 513.362L414.765 518.362Z" fill="url(#paint44_linear_1509_16874)"/>
</g>
<path d="M877.045 1326V1279.45H895.409C898.924 1279.45 901.924 1280.08 904.409 1281.34C906.909 1282.58 908.811 1284.35 910.114 1286.64C911.432 1288.91 912.091 1291.58 912.091 1294.66C912.091 1297.75 911.424 1300.41 910.091 1302.64C908.758 1304.85 906.826 1306.55 904.295 1307.73C901.78 1308.91 898.735 1309.5 895.159 1309.5H882.864V1301.59H893.568C895.447 1301.59 897.008 1301.33 898.25 1300.82C899.492 1300.3 900.417 1299.53 901.023 1298.5C901.644 1297.47 901.955 1296.19 901.955 1294.66C901.955 1293.11 901.644 1291.81 901.023 1290.75C900.417 1289.69 899.485 1288.89 898.227 1288.34C896.985 1287.78 895.417 1287.5 893.523 1287.5H886.886V1326H877.045ZM902.182 1304.82L913.75 1326H902.886L891.568 1304.82H902.182ZM919.045 1326V1279.45H950.409V1287.57H928.886V1298.66H948.795V1306.77H928.886V1317.89H950.5V1326H919.045ZM966.256 1326H955.71L971.778 1279.45H984.46L1000.51 1326H989.96L978.301 1290.09H977.938L966.256 1326ZM965.597 1307.7H990.506V1315.39H965.597V1307.7ZM1044.99 1295.75H1035.03C1034.85 1294.46 1034.48 1293.32 1033.92 1292.32C1033.36 1291.3 1032.64 1290.44 1031.76 1289.73C1030.88 1289.02 1029.87 1288.47 1028.72 1288.09C1027.58 1287.71 1026.34 1287.52 1025.01 1287.52C1022.6 1287.52 1020.5 1288.12 1018.72 1289.32C1016.93 1290.5 1015.54 1292.23 1014.56 1294.5C1013.57 1296.76 1013.08 1299.5 1013.08 1302.73C1013.08 1306.05 1013.57 1308.83 1014.56 1311.09C1015.56 1313.35 1016.95 1315.05 1018.74 1316.2C1020.53 1317.36 1022.59 1317.93 1024.94 1317.93C1026.26 1317.93 1027.48 1317.76 1028.6 1317.41C1029.74 1317.06 1030.75 1316.55 1031.62 1315.89C1032.5 1315.2 1033.23 1314.38 1033.81 1313.41C1034.4 1312.44 1034.81 1311.33 1035.03 1310.09L1044.99 1310.14C1044.73 1312.27 1044.09 1314.33 1043.06 1316.32C1042.04 1318.29 1040.67 1320.05 1038.94 1321.61C1037.23 1323.16 1035.19 1324.39 1032.81 1325.3C1030.44 1326.19 1027.77 1326.64 1024.78 1326.64C1020.63 1326.64 1016.92 1325.7 1013.65 1323.82C1010.39 1321.94 1007.81 1319.22 1005.92 1315.66C1004.04 1312.1 1003.1 1307.79 1003.1 1302.73C1003.1 1297.65 1004.06 1293.33 1005.97 1289.77C1007.88 1286.21 1010.47 1283.5 1013.74 1281.64C1017.01 1279.76 1020.69 1278.82 1024.78 1278.82C1027.48 1278.82 1029.98 1279.2 1032.28 1279.95C1034.6 1280.71 1036.66 1281.82 1038.44 1283.27C1040.23 1284.71 1041.69 1286.48 1042.81 1288.57C1043.94 1290.66 1044.67 1293.05 1044.99 1295.75ZM1050.27 1287.57V1279.45H1088.5V1287.57H1074.25V1326H1064.52V1287.57H1050.27Z" fill="url(#paint45_linear_1509_16874)"/>
<path d="M1503 587.568H1472.45V566.985H1477.78V581.11H1485.06V568.044H1490.38V581.11H1497.68V566.926H1503V587.568ZM1503 561.851H1472.45V555.393H1497.68V542.298H1503V561.851ZM1503 538.021H1472.45V517.439H1477.78V531.563H1485.06V518.498H1490.38V531.563H1497.68V517.379H1503V538.021ZM1483.15 485.353V491.886C1482.3 492.005 1481.55 492.249 1480.9 492.617C1480.23 492.985 1479.66 493.457 1479.2 494.034C1478.73 494.61 1478.37 495.276 1478.12 496.032C1477.87 496.778 1477.75 497.588 1477.75 498.463C1477.75 500.044 1478.14 501.421 1478.93 502.595C1479.7 503.768 1480.84 504.678 1482.33 505.324C1483.81 505.97 1485.61 506.294 1487.73 506.294C1489.9 506.294 1491.73 505.97 1493.22 505.324C1494.7 504.668 1495.82 503.753 1496.57 502.58C1497.33 501.406 1497.71 500.049 1497.71 498.508C1497.71 497.643 1497.59 496.843 1497.36 496.107C1497.13 495.361 1496.8 494.7 1496.36 494.123C1495.92 493.546 1495.37 493.069 1494.74 492.691C1494.1 492.303 1493.37 492.035 1492.56 491.886L1492.59 485.353C1493.99 485.522 1495.34 485.945 1496.65 486.621C1497.94 487.287 1499.1 488.187 1500.12 489.32C1501.14 490.444 1501.94 491.786 1502.54 493.347C1503.12 494.899 1503.42 496.654 1503.42 498.612C1503.42 501.337 1502.8 503.773 1501.57 505.921C1500.34 508.058 1498.55 509.749 1496.21 510.992C1493.88 512.225 1491.05 512.841 1487.73 512.841C1484.4 512.841 1481.56 512.215 1479.23 510.962C1476.89 509.709 1475.11 508.009 1473.89 505.861C1472.65 503.713 1472.04 501.297 1472.04 498.612C1472.04 496.843 1472.29 495.202 1472.78 493.691C1473.28 492.169 1474.01 490.822 1474.96 489.649C1475.9 488.475 1477.06 487.521 1478.44 486.785C1479.81 486.039 1481.38 485.562 1483.15 485.353ZM1477.78 481.885H1472.45V456.799H1477.78V466.15H1503V472.534H1477.78V481.885ZM1503 452.667H1472.45V440.616C1472.45 438.309 1472.87 436.341 1473.69 434.71C1474.51 433.069 1475.67 431.822 1477.17 430.966C1478.66 430.101 1480.41 429.669 1482.43 429.669C1484.46 429.669 1486.21 430.106 1487.67 430.981C1489.12 431.856 1490.23 433.124 1491.01 434.785C1491.78 436.435 1492.17 438.434 1492.17 440.78V448.849H1486.98V441.824C1486.98 440.591 1486.81 439.567 1486.47 438.752C1486.14 437.937 1485.63 437.33 1484.95 436.932C1484.28 436.525 1483.44 436.321 1482.43 436.321C1481.42 436.321 1480.56 436.525 1479.87 436.932C1479.17 437.33 1478.64 437.942 1478.29 438.767C1477.92 439.582 1477.73 440.611 1477.73 441.854V446.209H1503V452.667ZM1489.1 436.172L1503 428.58V435.709L1489.1 443.137V436.172ZM1487.73 397.035C1491.06 397.035 1493.89 397.667 1496.23 398.93C1498.57 400.182 1500.35 401.893 1501.58 404.06C1502.81 406.218 1503.42 408.644 1503.42 411.339C1503.42 414.053 1502.8 416.489 1501.57 418.647C1500.34 420.805 1498.55 422.51 1496.21 423.763C1493.88 425.015 1491.05 425.642 1487.73 425.642C1484.4 425.642 1481.56 425.015 1479.23 423.763C1476.89 422.51 1475.11 420.805 1473.89 418.647C1472.65 416.489 1472.04 414.053 1472.04 411.339C1472.04 408.644 1472.65 406.218 1473.89 404.06C1475.11 401.893 1476.89 400.182 1479.23 398.93C1481.56 397.667 1484.4 397.035 1487.73 397.035ZM1487.73 403.583C1485.57 403.583 1483.75 403.906 1482.27 404.552C1480.79 405.189 1479.66 406.089 1478.9 407.252C1478.13 408.415 1477.75 409.778 1477.75 411.339C1477.75 412.9 1478.13 414.262 1478.9 415.425C1479.66 416.589 1480.79 417.493 1482.27 418.14C1483.75 418.776 1485.57 419.094 1487.73 419.094C1489.88 419.094 1491.7 418.776 1493.19 418.14C1494.67 417.493 1495.79 416.589 1496.56 415.425C1497.32 414.262 1497.71 412.9 1497.71 411.339C1497.71 409.778 1497.32 408.415 1496.56 407.252C1495.79 406.089 1494.67 405.189 1493.19 404.552C1491.7 403.906 1489.88 403.583 1487.73 403.583ZM1472.45 366.702H1503V372.281L1483.77 385.57V385.793H1503V392.251H1472.45V386.584L1491.66 373.399V373.131H1472.45V366.702Z" fill="url(#paint46_linear_1509_16874)"/>
<path d="M1396 1599.31H1372.73V1590.13C1372.73 1588.37 1373.04 1586.87 1373.67 1585.63C1374.29 1584.38 1375.17 1583.43 1376.32 1582.78C1377.45 1582.12 1378.79 1581.79 1380.33 1581.79C1381.87 1581.79 1383.2 1582.12 1384.32 1582.79C1385.42 1583.45 1386.27 1584.42 1386.86 1585.69C1387.45 1586.94 1387.75 1588.47 1387.75 1590.25V1596.4H1383.8V1591.05C1383.8 1590.11 1383.67 1589.33 1383.41 1588.71C1383.15 1588.09 1382.77 1587.62 1382.25 1587.32C1381.73 1587.01 1381.09 1586.86 1380.33 1586.86C1379.56 1586.86 1378.91 1587.01 1378.38 1587.32C1377.84 1587.62 1377.44 1588.09 1377.17 1588.72C1376.89 1589.34 1376.75 1590.12 1376.75 1591.07V1594.39H1396V1599.31ZM1385.41 1586.74L1396 1580.96V1586.39L1385.41 1592.05V1586.74ZM1396 1578.31H1372.73V1562.63H1376.78V1573.39H1382.33V1563.44H1386.39V1573.39H1391.94V1562.58H1396V1578.31ZM1396 1550.47V1558.72H1372.73V1550.4C1372.73 1548.06 1373.19 1546.04 1374.12 1544.35C1375.05 1542.66 1376.38 1541.36 1378.11 1540.46C1379.85 1539.54 1381.92 1539.08 1384.34 1539.08C1386.77 1539.08 1388.85 1539.54 1390.59 1540.46C1392.33 1541.36 1393.67 1542.67 1394.6 1544.38C1395.53 1546.07 1396 1548.1 1396 1550.47ZM1391.78 1553.8V1550.67C1391.78 1549.22 1391.53 1547.99 1391.01 1547C1390.49 1546 1389.68 1545.25 1388.59 1544.75C1387.49 1544.24 1386.08 1543.99 1384.34 1543.99C1382.62 1543.99 1381.22 1544.24 1380.12 1544.75C1379.03 1545.25 1378.23 1546 1377.72 1546.99C1377.2 1547.98 1376.94 1549.21 1376.94 1550.66V1553.8H1391.78ZM1372.73 1521.06V1516.14H1387.84C1389.54 1516.14 1391.02 1516.55 1392.3 1517.36C1393.57 1518.16 1394.56 1519.28 1395.27 1520.73C1395.98 1522.18 1396.33 1523.86 1396.33 1525.79C1396.33 1527.72 1395.98 1529.41 1395.27 1530.86C1394.56 1532.3 1393.57 1533.43 1392.3 1534.23C1391.02 1535.03 1389.54 1535.44 1387.84 1535.44H1372.73V1530.51H1387.42C1388.31 1530.51 1389.09 1530.32 1389.78 1529.94C1390.47 1529.54 1391.02 1528.99 1391.41 1528.28C1391.8 1527.56 1392 1526.73 1392 1525.79C1392 1524.83 1391.8 1524 1391.41 1523.3C1391.02 1522.59 1390.47 1522.04 1389.78 1521.65C1389.09 1521.26 1388.31 1521.06 1387.42 1521.06H1372.73ZM1372.73 1507.48L1380.66 1502.78V1502.6L1372.73 1497.89V1492.33L1384.36 1499.43L1396 1492.17V1497.83L1388.06 1502.6V1502.78L1396 1507.56V1513.19L1384.36 1505.91L1372.73 1513.06V1507.48Z" fill="url(#paint47_linear_1509_16874)"/>
<path d="M1396.32 1322.29C1396.32 1323.99 1396.03 1325.5 1395.44 1326.82C1394.85 1328.14 1394.04 1329.18 1393.01 1329.95C1391.97 1330.71 1390.78 1331.1 1389.42 1331.12V1326.16C1389.99 1326.13 1390.49 1325.95 1390.92 1325.61C1391.34 1325.26 1391.67 1324.8 1391.91 1324.22C1392.14 1323.64 1392.26 1323 1392.26 1322.28C1392.26 1321.53 1392.13 1320.86 1391.86 1320.29C1391.6 1319.71 1391.23 1319.26 1390.76 1318.94C1390.29 1318.61 1389.75 1318.45 1389.14 1318.45C1388.52 1318.45 1387.97 1318.62 1387.49 1318.97C1387 1319.31 1386.62 1319.8 1386.35 1320.45C1386.08 1321.08 1385.94 1321.84 1385.94 1322.72V1324.89H1382.33V1322.72C1382.33 1321.98 1382.2 1321.32 1381.94 1320.75C1381.69 1320.18 1381.33 1319.73 1380.88 1319.41C1380.41 1319.1 1379.88 1318.94 1379.26 1318.94C1378.68 1318.94 1378.17 1319.08 1377.73 1319.36C1377.28 1319.63 1376.93 1320.02 1376.68 1320.52C1376.43 1321.01 1376.31 1321.58 1376.31 1322.24C1376.31 1322.91 1376.43 1323.52 1376.67 1324.07C1376.91 1324.63 1377.24 1325.07 1377.68 1325.4C1378.12 1325.74 1378.64 1325.91 1379.23 1325.94V1330.65C1377.89 1330.63 1376.7 1330.25 1375.68 1329.5C1374.66 1328.76 1373.86 1327.76 1373.28 1326.5C1372.7 1325.24 1372.41 1323.81 1372.41 1322.22C1372.41 1320.61 1372.7 1319.21 1373.28 1318C1373.87 1316.8 1374.66 1315.86 1375.65 1315.2C1376.63 1314.52 1377.74 1314.19 1378.97 1314.2C1380.27 1314.19 1381.36 1314.6 1382.23 1315.41C1383.1 1316.22 1383.65 1317.28 1383.89 1318.58H1384.07C1384.29 1316.87 1384.88 1315.57 1385.85 1314.68C1386.81 1313.77 1388.02 1313.33 1389.47 1313.33C1390.79 1313.33 1391.97 1313.71 1393 1314.48C1394.03 1315.25 1394.84 1316.3 1395.43 1317.65C1396.02 1319 1396.32 1320.55 1396.32 1322.29ZM1396.3 1307.58C1396.3 1308.33 1396.03 1308.97 1395.5 1309.51C1394.96 1310.04 1394.32 1310.31 1393.57 1310.31C1392.83 1310.31 1392.19 1310.04 1391.66 1309.51C1391.13 1308.97 1390.86 1308.33 1390.86 1307.58C1390.86 1306.85 1391.13 1306.21 1391.66 1305.67C1392.19 1305.12 1392.83 1304.85 1393.57 1304.85C1394.07 1304.85 1394.53 1304.98 1394.94 1305.24C1395.35 1305.49 1395.68 1305.82 1395.93 1306.23C1396.17 1306.64 1396.3 1307.09 1396.3 1307.58ZM1372.73 1291.47V1286.6H1388.95C1390.45 1286.6 1391.76 1286.94 1392.86 1287.62C1393.97 1288.28 1394.82 1289.21 1395.42 1290.4C1396.02 1291.59 1396.32 1292.97 1396.32 1294.55C1396.32 1295.95 1396.07 1297.22 1395.58 1298.37C1395.08 1299.5 1394.32 1300.4 1393.31 1301.07C1392.28 1301.74 1391 1302.07 1389.45 1302.06V1297.16C1390.07 1297.15 1390.59 1297.02 1391.03 1296.79C1391.47 1296.54 1391.8 1296.21 1392.03 1295.8C1392.26 1295.37 1392.38 1294.87 1392.38 1294.3C1392.38 1293.69 1392.25 1293.18 1391.99 1292.76C1391.72 1292.34 1391.34 1292.02 1390.83 1291.8C1390.32 1291.58 1389.7 1291.47 1388.95 1291.47H1372.73ZM1379.42 1269.91C1378.5 1270 1377.79 1270.39 1377.28 1271.08C1376.78 1271.77 1376.52 1272.71 1376.52 1273.89C1376.52 1274.69 1376.64 1275.37 1376.86 1275.92C1377.08 1276.48 1377.39 1276.9 1377.78 1277.19C1378.18 1277.48 1378.62 1277.63 1379.12 1277.63C1379.54 1277.64 1379.91 1277.55 1380.22 1277.37C1380.53 1277.17 1380.8 1276.9 1381.02 1276.56C1381.24 1276.22 1381.44 1275.82 1381.6 1275.38C1381.76 1274.93 1381.9 1274.45 1382.01 1273.94L1382.51 1271.85C1382.74 1270.84 1383.04 1269.91 1383.42 1269.06C1383.8 1268.21 1384.27 1267.48 1384.82 1266.85C1385.37 1266.23 1386.02 1265.75 1386.77 1265.41C1387.52 1265.06 1388.38 1264.88 1389.35 1264.88C1390.78 1264.88 1392.01 1265.25 1393.06 1265.97C1394.09 1266.68 1394.9 1267.71 1395.48 1269.06C1396.05 1270.4 1396.33 1272.02 1396.33 1273.91C1396.33 1275.79 1396.04 1277.43 1395.47 1278.82C1394.89 1280.21 1394.04 1281.29 1392.91 1282.07C1391.77 1282.84 1390.37 1283.25 1388.69 1283.29V1278.52C1389.47 1278.47 1390.12 1278.25 1390.65 1277.85C1391.16 1277.45 1391.55 1276.92 1391.82 1276.25C1392.08 1275.58 1392.2 1274.82 1392.2 1273.97C1392.2 1273.13 1392.08 1272.41 1391.84 1271.8C1391.6 1271.18 1391.26 1270.69 1390.83 1270.35C1390.4 1270.01 1389.9 1269.84 1389.34 1269.84C1388.82 1269.84 1388.38 1270 1388.02 1270.31C1387.67 1270.61 1387.36 1271.06 1387.11 1271.65C1386.86 1272.23 1386.64 1272.95 1386.43 1273.8L1385.8 1276.33C1385.32 1278.29 1384.57 1279.84 1383.56 1280.98C1382.54 1282.12 1381.17 1282.68 1379.45 1282.67C1378.05 1282.68 1376.81 1282.3 1375.76 1281.55C1374.71 1280.78 1373.89 1279.73 1373.3 1278.4C1372.7 1277.07 1372.41 1275.55 1372.41 1273.85C1372.41 1272.13 1372.7 1270.62 1373.3 1269.33C1373.89 1268.04 1374.71 1267.03 1375.76 1266.31C1376.81 1265.59 1378.03 1265.22 1379.42 1265.19V1269.91Z" fill="url(#paint48_linear_1509_16874)"/>
<path d="M279 115.528H308.091V121.679H296.088V134.165H308.091V140.301H279V134.165H291.017V121.679H279V115.528ZM303.02 144.264H308.091V168.156H303.02V159.25H279V153.17H303.02V144.264ZM308.091 172.091V179.676L288.545 187.688V188.028L308.091 196.04V203.625H279V197.659H297.935V197.418L279.142 189.889V185.827L298.006 178.298V178.057H279V172.091H308.091ZM279 208.692H308.091V214.843H284.071V227.315H279V208.692Z" fill="url(#paint49_linear_1509_16874)"/>
<path d="M436.24 598.196V591.974C437.045 591.861 437.76 591.629 438.385 591.278C439.019 590.928 439.559 590.478 440.004 589.929C440.449 589.38 440.79 588.745 441.027 588.026C441.263 587.315 441.382 586.544 441.382 585.71C441.382 584.205 441.008 582.893 440.26 581.776C439.521 580.658 438.441 579.792 437.021 579.176C435.61 578.561 433.896 578.253 431.879 578.253C429.805 578.253 428.063 578.561 426.652 579.176C425.241 579.801 424.175 580.672 423.456 581.79C422.736 582.907 422.376 584.2 422.376 585.668C422.376 586.491 422.485 587.254 422.703 587.955C422.921 588.665 423.238 589.295 423.655 589.844C424.081 590.393 424.597 590.848 425.203 591.207C425.809 591.577 426.5 591.832 427.277 591.974L427.248 598.196C425.913 598.035 424.625 597.633 423.385 596.989C422.154 596.354 421.05 595.497 420.075 594.418C419.109 593.348 418.342 592.069 417.774 590.582C417.215 589.105 416.936 587.434 416.936 585.568C416.936 582.973 417.523 580.653 418.697 578.608C419.871 576.572 421.571 574.962 423.797 573.778C426.022 572.604 428.716 572.017 431.879 572.017C435.051 572.017 437.75 572.614 439.976 573.807C442.201 575 443.896 576.619 445.061 578.665C446.235 580.71 446.822 583.011 446.822 585.568C446.822 587.254 446.585 588.816 446.112 590.256C445.638 591.705 444.947 592.988 444.038 594.105C443.138 595.223 442.035 596.132 440.728 596.832C439.422 597.543 437.925 597.997 436.24 598.196ZM438.058 618.388C439.204 618.274 440.094 617.786 440.728 616.925C441.363 616.063 441.68 614.893 441.68 613.416C441.68 612.412 441.538 611.565 441.254 610.874C440.979 610.182 440.596 609.652 440.103 609.283C439.611 608.923 439.052 608.743 438.427 608.743C437.906 608.724 437.452 608.833 437.064 609.07C436.675 609.316 436.339 609.652 436.055 610.078C435.78 610.504 435.539 610.997 435.331 611.555C435.132 612.114 434.961 612.711 434.819 613.345L434.194 615.959C433.91 617.228 433.531 618.393 433.058 619.453C432.584 620.514 432.002 621.432 431.311 622.209C430.619 622.985 429.805 623.587 428.868 624.013C427.93 624.448 426.855 624.671 425.643 624.68C423.863 624.671 422.319 624.216 421.012 623.317C419.715 622.427 418.707 621.139 417.987 619.453C417.277 617.777 416.922 615.755 416.922 613.388C416.922 611.039 417.281 608.994 418.001 607.251C418.721 605.518 419.786 604.164 421.197 603.189C422.618 602.223 424.374 601.716 426.467 601.669V607.621C425.492 607.687 424.677 607.966 424.024 608.459C423.38 608.961 422.892 609.628 422.561 610.462C422.239 611.304 422.078 612.256 422.078 613.317C422.078 614.358 422.229 615.263 422.532 616.03C422.835 616.806 423.257 617.408 423.797 617.834C424.336 618.26 424.957 618.473 425.657 618.473C426.311 618.473 426.86 618.279 427.305 617.891C427.75 617.512 428.129 616.953 428.441 616.214C428.754 615.485 429.038 614.59 429.294 613.53L430.089 610.362C430.686 607.91 431.619 605.973 432.887 604.553C434.156 603.132 435.866 602.427 438.015 602.436C439.777 602.427 441.316 602.895 442.632 603.842C443.948 604.799 444.976 606.11 445.714 607.777C446.453 609.444 446.822 611.338 446.822 613.459C446.822 615.618 446.453 617.502 445.714 619.112C444.976 620.732 443.948 621.991 442.632 622.891C441.316 623.79 439.791 624.254 438.058 624.283V618.388ZM438.058 644.599C439.204 644.485 440.094 643.997 440.728 643.136C441.363 642.274 441.68 641.104 441.68 639.627C441.68 638.623 441.538 637.776 441.254 637.085C440.979 636.393 440.596 635.863 440.103 635.494C439.611 635.134 439.052 634.954 438.427 634.954C437.906 634.935 437.452 635.044 437.064 635.281C436.675 635.527 436.339 635.863 436.055 636.289C435.78 636.715 435.539 637.208 435.331 637.766C435.132 638.325 434.961 638.922 434.819 639.556L434.194 642.17C433.91 643.439 433.531 644.603 433.058 645.664C432.584 646.725 432.002 647.643 431.311 648.42C430.619 649.196 429.805 649.798 428.868 650.224C427.93 650.659 426.855 650.882 425.643 650.891C423.863 650.882 422.319 650.427 421.012 649.528C419.715 648.638 418.707 647.35 417.987 645.664C417.277 643.988 416.922 641.966 416.922 639.599C416.922 637.25 417.281 635.205 418.001 633.462C418.721 631.729 419.786 630.375 421.197 629.4C422.618 628.434 424.374 627.927 426.467 627.88V633.832C425.492 633.898 424.677 634.177 424.024 634.67C423.38 635.172 422.892 635.839 422.561 636.673C422.239 637.515 422.078 638.467 422.078 639.528C422.078 640.569 422.229 641.474 422.532 642.241C422.835 643.017 423.257 643.619 423.797 644.045C424.336 644.471 424.957 644.684 425.657 644.684C426.311 644.684 426.86 644.49 427.305 644.102C427.75 643.723 428.129 643.164 428.441 642.425C428.754 641.696 429.038 640.801 429.294 639.741L430.089 636.573C430.686 634.121 431.619 632.184 432.887 630.763C434.156 629.343 435.866 628.638 438.015 628.647C439.777 628.638 441.316 629.106 442.632 630.053C443.948 631.01 444.976 632.321 445.714 633.988C446.453 635.655 446.822 637.549 446.822 639.67C446.822 641.829 446.453 643.713 445.714 645.323C444.976 646.942 443.948 648.202 442.632 649.102C441.316 650.001 439.791 650.465 438.058 650.494V644.599Z" fill="url(#paint50_linear_1509_16874)"/>
<path d="M848.437 834.223V813.859H856.471C858.009 813.859 859.321 814.134 860.408 814.684C861.502 815.228 862.334 816 862.904 817.001C863.481 817.995 863.769 819.165 863.769 820.511C863.769 821.863 863.477 823.027 862.894 824.001C862.311 824.969 861.466 825.711 860.359 826.228C859.258 826.745 857.926 827.004 856.361 827.004H850.982V823.544H855.665C856.487 823.544 857.17 823.431 857.714 823.206C858.257 822.98 858.662 822.642 858.927 822.191C859.198 821.741 859.334 821.181 859.334 820.511C859.334 819.835 859.198 819.265 858.927 818.801C858.662 818.337 858.254 817.985 857.704 817.747C857.16 817.502 856.474 817.379 855.645 817.379H852.742V834.223H848.437ZM859.434 824.956L864.495 834.223H859.742L854.79 824.956H859.434ZM885.525 824.041C885.525 826.261 885.104 828.151 884.262 829.708C883.427 831.266 882.287 832.456 880.841 833.278C879.403 834.093 877.786 834.501 875.989 834.501C874.18 834.501 872.555 834.09 871.117 833.268C869.679 832.446 868.542 831.256 867.707 829.699C866.871 828.141 866.454 826.255 866.454 824.041C866.454 821.82 866.871 819.931 867.707 818.373C868.542 816.815 869.679 815.629 871.117 814.814C872.555 813.992 874.18 813.581 875.989 813.581C877.786 813.581 879.403 813.992 880.841 814.814C882.287 815.629 883.427 816.815 884.262 818.373C885.104 819.931 885.525 821.82 885.525 824.041ZM881.16 824.041C881.16 822.602 880.944 821.389 880.513 820.402C880.089 819.414 879.489 818.665 878.714 818.154C877.938 817.644 877.03 817.389 875.989 817.389C874.948 817.389 874.04 817.644 873.265 818.154C872.489 818.665 871.886 819.414 871.455 820.402C871.031 821.389 870.819 822.602 870.819 824.041C870.819 825.479 871.031 826.692 871.455 827.68C871.886 828.668 872.489 829.417 873.265 829.927C874.04 830.438 874.948 830.693 875.989 830.693C877.03 830.693 877.938 830.438 878.714 829.927C879.489 829.417 880.089 828.668 880.513 827.68C880.944 826.692 881.16 825.479 881.16 824.041ZM901.292 813.859H905.598V827.083C905.598 828.568 905.243 829.868 904.534 830.981C903.831 832.095 902.847 832.963 901.58 833.586C900.314 834.203 898.839 834.511 897.156 834.511C895.465 834.511 893.987 834.203 892.721 833.586C891.455 832.963 890.471 832.095 889.768 830.981C889.065 829.868 888.714 828.568 888.714 827.083V813.859H893.019V826.716C893.019 827.491 893.188 828.181 893.526 828.784C893.871 829.387 894.355 829.861 894.978 830.206C895.601 830.55 896.327 830.723 897.156 830.723C897.991 830.723 898.717 830.55 899.333 830.206C899.956 829.861 900.437 829.387 900.775 828.784C901.12 828.181 901.292 827.491 901.292 826.716V813.859ZM908.364 817.409V813.859H925.089V817.409H918.854V834.223H914.599V817.409H908.364ZM927.843 834.223V813.859H941.564V817.409H932.148V822.261H940.859V825.811H932.148V830.673H941.604V834.223H927.843ZM944.987 834.223V813.859H953.022C954.559 813.859 955.872 814.134 956.959 814.684C958.053 815.228 958.885 816 959.455 817.001C960.031 817.995 960.32 819.165 960.32 820.511C960.32 821.863 960.028 823.027 959.445 824.001C958.861 824.969 958.016 825.711 956.909 826.228C955.809 826.745 954.477 827.004 952.912 827.004H947.533V823.544H952.216C953.038 823.544 953.721 823.431 954.264 823.206C954.808 822.98 955.212 822.642 955.477 822.191C955.749 821.741 955.885 821.181 955.885 820.511C955.885 819.835 955.749 819.265 955.477 818.801C955.212 818.337 954.805 817.985 954.254 817.747C953.711 817.502 953.025 817.379 952.196 817.379H949.293V834.223H944.987ZM955.985 824.956L961.046 834.223H956.293L951.341 824.956H955.985Z" fill="url(#paint51_linear_1509_16874)"/>
</g>
<defs>
<linearGradient id="paint0_linear_1509_16874" x1="-220.5" y1="1059.5" x2="67.6729" y2="1654.39" gradientUnits="userSpaceOnUse">
<stop stop-color="#BF953F"/>
<stop offset="0.21875" stop-color="#FCF6BA"/>
<stop offset="0.515625" stop-color="#B38728"/>
<stop offset="0.78125" stop-color="#FBF5B7"/>
<stop offset="1" stop-color="#AA771C"/>
</linearGradient>
<linearGradient id="paint1_linear_1509_16874" x1="-7.42763" y1="1201.86" x2="316.953" y2="1453.42" gradientUnits="userSpaceOnUse">
<stop stop-color="#BF953F"/>
<stop offset="0.21875" stop-color="#FCF6BA"/>
<stop offset="0.515625" stop-color="#B38728"/>
<stop offset="0.78125" stop-color="#FBF5B7"/>
<stop offset="1" stop-color="#AA771C"/>
</linearGradient>
<linearGradient id="paint2_linear_1509_16874" x1="-5.25335" y1="968" x2="800.543" y2="1280.78" gradientUnits="userSpaceOnUse">
<stop stop-color="#BF953F"/>
<stop offset="0.21875" stop-color="#FCF6BA"/>
<stop offset="0.515625" stop-color="#B38728"/>
<stop offset="0.78125" stop-color="#FBF5B7"/>
<stop offset="1" stop-color="#AA771C"/>
</linearGradient>
<linearGradient id="paint3_linear_1509_16874" x1="-7.85652" y1="995.623" x2="834.03" y2="1338.14" gradientUnits="userSpaceOnUse">
<stop stop-color="#BF953F"/>
<stop offset="0.21875" stop-color="#FCF6BA"/>
<stop offset="0.515625" stop-color="#B38728"/>
<stop offset="0.78125" stop-color="#FBF5B7"/>
<stop offset="1" stop-color="#AA771C"/>
</linearGradient>
<linearGradient id="paint4_linear_1509_16874" x1="0.0405257" y1="1036.48" x2="860.877" y2="1399.32" gradientUnits="userSpaceOnUse">
<stop stop-color="#BF953F"/>
<stop offset="0.21875" stop-color="#FCF6BA"/>
<stop offset="0.515625" stop-color="#B38728"/>
<stop offset="0.78125" stop-color="#FBF5B7"/>
<stop offset="1" stop-color="#AA771C"/>
</linearGradient>
<linearGradient id="paint5_linear_1509_16874" x1="1.08764" y1="1072.2" x2="894.258" y2="1466.89" gradientUnits="userSpaceOnUse">
<stop stop-color="#BF953F"/>
<stop offset="0.21875" stop-color="#FCF6BA"/>
<stop offset="0.515625" stop-color="#B38728"/>
<stop offset="0.78125" stop-color="#FBF5B7"/>
<stop offset="1" stop-color="#AA771C"/>
</linearGradient>
<linearGradient id="paint6_linear_1509_16874" x1="60.4122" y1="1695.73" x2="469.517" y2="2057.9" gradientUnits="userSpaceOnUse">
<stop stop-color="#BF953F"/>
<stop offset="0.21875" stop-color="#FCF6BA"/>
<stop offset="0.515625" stop-color="#B38728"/>
<stop offset="0.78125" stop-color="#FBF5B7"/>
<stop offset="1" stop-color="#AA771C"/>
</linearGradient>
<linearGradient id="paint7_linear_1509_16874" x1="159.555" y1="1787.11" x2="412.07" y2="2110.35" gradientUnits="userSpaceOnUse">
<stop stop-color="#BF953F"/>
<stop offset="0.21875" stop-color="#FCF6BA"/>
<stop offset="0.515625" stop-color="#B38728"/>
<stop offset="0.78125" stop-color="#FBF5B7"/>
<stop offset="1" stop-color="#AA771C"/>
</linearGradient>
<linearGradient id="paint8_linear_1509_16874" x1="411.896" y1="1863.2" x2="545.148" y2="1972.33" gradientUnits="userSpaceOnUse">
<stop stop-color="#BF953F"/>
<stop offset="0.21875" stop-color="#FCF6BA"/>
<stop offset="0.515625" stop-color="#B38728"/>
<stop offset="0.78125" stop-color="#FBF5B7"/>
<stop offset="1" stop-color="#AA771C"/>
</linearGradient>
<linearGradient id="paint9_linear_1509_16874" x1="845.839" y1="1645.12" x2="1025.71" y2="1676.99" gradientUnits="userSpaceOnUse">
<stop stop-color="#BF953F"/>
<stop offset="0.21875" stop-color="#FCF6BA"/>
<stop offset="0.515625" stop-color="#B38728"/>
<stop offset="0.78125" stop-color="#FBF5B7"/>
<stop offset="1" stop-color="#AA771C"/>
</linearGradient>
<linearGradient id="paint10_linear_1509_16874" x1="1321.16" y1="1853.4" x2="1419.91" y2="2122.16" gradientUnits="userSpaceOnUse">
<stop stop-color="#BF953F"/>
<stop offset="0.21875" stop-color="#FCF6BA"/>
<stop offset="0.515625" stop-color="#B38728"/>
<stop offset="0.78125" stop-color="#FBF5B7"/>
<stop offset="1" stop-color="#AA771C"/>
</linearGradient>
<linearGradient id="paint11_linear_1509_16874" x1="1137.61" y1="1144.16" x2="1236.26" y2="1147.79" gradientUnits="userSpaceOnUse">
<stop stop-color="#BF953F"/>
<stop offset="0.21875" stop-color="#FCF6BA"/>
<stop offset="0.515625" stop-color="#B38728"/>
<stop offset="0.78125" stop-color="#FBF5B7"/>
<stop offset="1" stop-color="#AA771C"/>
</linearGradient>
<linearGradient id="paint12_linear_1509_16874" x1="1174.65" y1="1082.37" x2="1271.97" y2="1085.67" gradientUnits="userSpaceOnUse">
<stop stop-color="#BF953F"/>
<stop offset="0.21875" stop-color="#FCF6BA"/>
<stop offset="0.515625" stop-color="#B38728"/>
<stop offset="0.78125" stop-color="#FBF5B7"/>
<stop offset="1" stop-color="#AA771C"/>
</linearGradient>
<linearGradient id="paint13_linear_1509_16874" x1="1209.07" y1="1011.13" x2="1304.84" y2="1014.06" gradientUnits="userSpaceOnUse">
<stop stop-color="#BF953F"/>
<stop offset="0.21875" stop-color="#FCF6BA"/>
<stop offset="0.515625" stop-color="#B38728"/>
<stop offset="0.78125" stop-color="#FBF5B7"/>
<stop offset="1" stop-color="#AA771C"/>
</linearGradient>
<linearGradient id="paint14_linear_1509_16874" x1="1244.72" y1="948.834" x2="1345.84" y2="951.905" gradientUnits="userSpaceOnUse">
<stop stop-color="#BF953F"/>
<stop offset="0.21875" stop-color="#FCF6BA"/>
<stop offset="0.515625" stop-color="#B38728"/>
<stop offset="0.78125" stop-color="#FBF5B7"/>
<stop offset="1" stop-color="#AA771C"/>
</linearGradient>
<linearGradient id="paint15_linear_1509_16874" x1="1603.69" y1="866.293" x2="1962.36" y2="1073.59" gradientUnits="userSpaceOnUse">
<stop stop-color="#BF953F"/>
<stop offset="0.21875" stop-color="#FCF6BA"/>
<stop offset="0.515625" stop-color="#B38728"/>
<stop offset="0.78125" stop-color="#FBF5B7"/>
<stop offset="1" stop-color="#AA771C"/>
</linearGradient>
<linearGradient id="paint16_linear_1509_16874" x1="686.221" y1="818.815" x2="1569.36" y2="552.54" gradientUnits="userSpaceOnUse">
<stop stop-color="#BF953F"/>
<stop offset="0.251768" stop-color="#FCF6BA"/>
<stop offset="0.515625" stop-color="#B38728"/>
<stop offset="0.78125" stop-color="#FBF5B7"/>
<stop offset="1" stop-color="#AA771C"/>
</linearGradient>
<linearGradient id="paint17_linear_1509_16874" x1="1336.55" y1="-27.8431" x2="1483.35" y2="131.622" gradientUnits="userSpaceOnUse">
<stop stop-color="#BF953F"/>
<stop offset="0.21875" stop-color="#FCF6BA"/>
<stop offset="0.515625" stop-color="#B38728"/>
<stop offset="0.78125" stop-color="#FBF5B7"/>
<stop offset="1" stop-color="#AA771C"/>
</linearGradient>
<linearGradient id="paint18_linear_1509_16874" x1="1723.45" y1="-33.9632" x2="1875.36" y2="91.2335" gradientUnits="userSpaceOnUse">
<stop stop-color="#BF953F"/>
<stop offset="0.21875" stop-color="#FCF6BA"/>
<stop offset="0.515625" stop-color="#B38728"/>
<stop offset="0.78125" stop-color="#FBF5B7"/>
<stop offset="1" stop-color="#AA771C"/>
</linearGradient>
<linearGradient id="paint19_linear_1509_16874" x1="815.947" y1="7.47747" x2="1212.54" y2="74.5281" gradientUnits="userSpaceOnUse">
<stop stop-color="#BF953F"/>
<stop offset="0.21875" stop-color="#FCF6BA"/>
<stop offset="0.515625" stop-color="#B38728"/>
<stop offset="0.78125" stop-color="#FBF5B7"/>
<stop offset="1" stop-color="#AA771C"/>
</linearGradient>
<linearGradient id="paint20_linear_1509_16874" x1="1125.46" y1="2.57628" x2="1309.36" y2="22.6344" gradientUnits="userSpaceOnUse">
<stop stop-color="#BF953F"/>
<stop offset="0.21875" stop-color="#FCF6BA"/>
<stop offset="0.515625" stop-color="#B38728"/>
<stop offset="0.78125" stop-color="#FBF5B7"/>
<stop offset="1" stop-color="#AA771C"/>
</linearGradient>
<linearGradient id="paint21_linear_1509_16874" x1="1460.13" y1="272.846" x2="2004.88" y2="531.834" gradientUnits="userSpaceOnUse">
<stop stop-color="#BF953F"/>
<stop offset="0.21875" stop-color="#FCF6BA"/>
<stop offset="0.515625" stop-color="#B38728"/>
<stop offset="0.78125" stop-color="#FBF5B7"/>
<stop offset="1" stop-color="#AA771C"/>
</linearGradient>
<linearGradient id="paint22_linear_1509_16874" x1="1031.16" y1="120.51" x2="1743.39" y2="748.054" gradientUnits="userSpaceOnUse">
<stop stop-color="#BF953F"/>
<stop offset="0.21875" stop-color="#FCF6BA"/>
<stop offset="0.515625" stop-color="#B38728"/>
<stop offset="0.78125" stop-color="#FBF5B7"/>
<stop offset="1" stop-color="#AA771C"/>
</linearGradient>
<linearGradient id="paint23_linear_1509_16874" x1="1064.34" y1="157.154" x2="1771.71" y2="760.992" gradientUnits="userSpaceOnUse">
<stop stop-color="#BF953F"/>
<stop offset="0.21875" stop-color="#FCF6BA"/>
<stop offset="0.515625" stop-color="#B38728"/>
<stop offset="0.78125" stop-color="#FBF5B7"/>
<stop offset="1" stop-color="#AA771C"/>
</linearGradient>
<linearGradient id="paint24_linear_1509_16874" x1="1099.29" y1="193.958" x2="1810.18" y2="772.145" gradientUnits="userSpaceOnUse">
<stop stop-color="#BF953F"/>
<stop offset="0.21875" stop-color="#FCF6BA"/>
<stop offset="0.515625" stop-color="#B38728"/>
<stop offset="0.78125" stop-color="#FBF5B7"/>
<stop offset="1" stop-color="#AA771C"/>
</linearGradient>
<linearGradient id="paint25_linear_1509_16874" x1="1134.51" y1="229.723" x2="1846.75" y2="765.614" gradientUnits="userSpaceOnUse">
<stop stop-color="#BF953F"/>
<stop offset="0.21875" stop-color="#FCF6BA"/>
<stop offset="0.515625" stop-color="#B38728"/>
<stop offset="0.78125" stop-color="#FBF5B7"/>
<stop offset="1" stop-color="#AA771C"/>
</linearGradient>
<linearGradient id="paint26_linear_1509_16874" x1="1409.23" y1="1080.16" x2="1898.17" y2="1426.14" gradientUnits="userSpaceOnUse">
<stop stop-color="#BF953F"/>
<stop offset="0.21875" stop-color="#FCF6BA"/>
<stop offset="0.515625" stop-color="#B38728"/>
<stop offset="0.78125" stop-color="#FBF5B7"/>
<stop offset="1" stop-color="#AA771C"/>
</linearGradient>
<linearGradient id="paint27_linear_1509_16874" x1="1443.59" y1="1044.47" x2="1920.58" y2="1365.39" gradientUnits="userSpaceOnUse">
<stop stop-color="#BF953F"/>
<stop offset="0.21875" stop-color="#FCF6BA"/>
<stop offset="0.515625" stop-color="#B38728"/>
<stop offset="0.78125" stop-color="#FBF5B7"/>
<stop offset="1" stop-color="#AA771C"/>
</linearGradient>
<linearGradient id="paint28_linear_1509_16874" x1="1376.14" y1="1007.81" x2="1880.17" y2="1382.82" gradientUnits="userSpaceOnUse">
<stop stop-color="#BF953F"/>
<stop offset="0.21875" stop-color="#FCF6BA"/>
<stop offset="0.515625" stop-color="#B38728"/>
<stop offset="0.78125" stop-color="#FBF5B7"/>
<stop offset="1" stop-color="#AA771C"/>
</linearGradient>
<linearGradient id="paint29_linear_1509_16874" x1="1442.35" y1="975.001" x2="1920.41" y2="1290.89" gradientUnits="userSpaceOnUse">
<stop stop-color="#BF953F"/>
<stop offset="0.21875" stop-color="#FCF6BA"/>
<stop offset="0.515625" stop-color="#B38728"/>
<stop offset="0.78125" stop-color="#FBF5B7"/>
<stop offset="1" stop-color="#AA771C"/>
</linearGradient>
<linearGradient id="paint30_linear_1509_16874" x1="1411.53" y1="938.217" x2="1902.15" y2="1282.4" gradientUnits="userSpaceOnUse">
<stop stop-color="#BF953F"/>
<stop offset="0.21875" stop-color="#FCF6BA"/>
<stop offset="0.515625" stop-color="#B38728"/>
<stop offset="0.78125" stop-color="#FBF5B7"/>
<stop offset="1" stop-color="#AA771C"/>
</linearGradient>
<linearGradient id="paint31_linear_1509_16874" x1="1441.19" y1="904.289" x2="1919.11" y2="1220.88" gradientUnits="userSpaceOnUse">
<stop stop-color="#BF953F"/>
<stop offset="0.21875" stop-color="#FCF6BA"/>
<stop offset="0.515625" stop-color="#B38728"/>
<stop offset="0.78125" stop-color="#FBF5B7"/>
<stop offset="1" stop-color="#AA771C"/>
</linearGradient>
<linearGradient id="paint32_linear_1509_16874" x1="1357.35" y1="1462.63" x2="1883.61" y2="1851.51" gradientUnits="userSpaceOnUse">
<stop stop-color="#BF953F"/>
<stop offset="0.21875" stop-color="#FCF6BA"/>
<stop offset="0.515625" stop-color="#B38728"/>
<stop offset="0.78125" stop-color="#FBF5B7"/>
<stop offset="1" stop-color="#AA771C"/>
</linearGradient>
<linearGradient id="paint33_linear_1509_16874" x1="1357.52" y1="1218.36" x2="1974.01" y2="1577.74" gradientUnits="userSpaceOnUse">
<stop stop-color="#BF953F"/>
<stop offset="0.21875" stop-color="#FCF6BA"/>
<stop offset="0.515625" stop-color="#B38728"/>
<stop offset="0.78125" stop-color="#FBF5B7"/>
<stop offset="1" stop-color="#AA771C"/>
</linearGradient>
<linearGradient id="paint34_linear_1509_16874" x1="47.1702" y1="-10.0742" x2="125.316" y2="217.318" gradientUnits="userSpaceOnUse">
<stop stop-color="#BF953F"/>
<stop offset="0.21875" stop-color="#FCF6BA"/>
<stop offset="0.515625" stop-color="#B38728"/>
<stop offset="0.78125" stop-color="#FBF5B7"/>
<stop offset="1" stop-color="#AA771C"/>
</linearGradient>
<linearGradient id="paint35_linear_1509_16874" x1="-18.8812" y1="-1.3508" x2="413.116" y2="556.42" gradientUnits="userSpaceOnUse">
<stop stop-color="#BF953F"/>
<stop offset="0.21875" stop-color="#FCF6BA"/>
<stop offset="0.515625" stop-color="#B38728"/>
<stop offset="0.78125" stop-color="#FBF5B7"/>
<stop offset="1" stop-color="#AA771C"/>
</linearGradient>
<linearGradient id="paint36_linear_1509_16874" x1="-10.6603" y1="527.815" x2="281.863" y2="869.413" gradientUnits="userSpaceOnUse">
<stop stop-color="#BF953F"/>
<stop offset="0.21875" stop-color="#FCF6BA"/>
<stop offset="0.515625" stop-color="#B38728"/>
<stop offset="0.78125" stop-color="#FBF5B7"/>
<stop offset="1" stop-color="#AA771C"/>
</linearGradient>
<linearGradient id="paint37_linear_1509_16874" x1="6.28879" y1="6.71648" x2="973.409" y2="487.251" gradientUnits="userSpaceOnUse">
<stop stop-color="#BF953F"/>
<stop offset="0.21875" stop-color="#FCF6BA"/>
<stop offset="0.515625" stop-color="#B38728"/>
<stop offset="0.78125" stop-color="#FBF5B7"/>
<stop offset="1" stop-color="#AA771C"/>
</linearGradient>
<linearGradient id="paint38_linear_1509_16874" x1="10.2279" y1="17.5091" x2="1011.11" y2="517.567" gradientUnits="userSpaceOnUse">
<stop stop-color="#BF953F"/>
<stop offset="0.21875" stop-color="#FCF6BA"/>
<stop offset="0.515625" stop-color="#B38728"/>
<stop offset="0.78125" stop-color="#FBF5B7"/>
<stop offset="1" stop-color="#AA771C"/>
</linearGradient>
<linearGradient id="paint39_linear_1509_16874" x1="17.3956" y1="15.8557" x2="1056.07" y2="524.563" gradientUnits="userSpaceOnUse">
<stop stop-color="#BF953F"/>
<stop offset="0.21875" stop-color="#FCF6BA"/>
<stop offset="0.515625" stop-color="#B38728"/>
<stop offset="0.78125" stop-color="#FBF5B7"/>
<stop offset="1" stop-color="#AA771C"/>
</linearGradient>
<linearGradient id="paint40_linear_1509_16874" x1="14.8353" y1="20.8716" x2="1097.6" y2="553.752" gradientUnits="userSpaceOnUse">
<stop stop-color="#BF953F"/>
<stop offset="0.21875" stop-color="#FCF6BA"/>
<stop offset="0.515625" stop-color="#B38728"/>
<stop offset="0.78125" stop-color="#FBF5B7"/>
<stop offset="1" stop-color="#AA771C"/>
</linearGradient>
<linearGradient id="paint41_linear_1509_16874" x1="-2.0398" y1="361.045" x2="241.641" y2="766.506" gradientUnits="userSpaceOnUse">
<stop stop-color="#BF953F"/>
<stop offset="0.21875" stop-color="#FCF6BA"/>
<stop offset="0.515625" stop-color="#B38728"/>
<stop offset="0.78125" stop-color="#FBF5B7"/>
<stop offset="1" stop-color="#AA771C"/>
</linearGradient>
<linearGradient id="paint42_linear_1509_16874" x1="5.03282" y1="209.402" x2="157.501" y2="575.314" gradientUnits="userSpaceOnUse">
<stop stop-color="#BF953F"/>
<stop offset="0.21875" stop-color="#FCF6BA"/>
<stop offset="0.515625" stop-color="#B38728"/>
<stop offset="0.78125" stop-color="#FBF5B7"/>
<stop offset="1" stop-color="#AA771C"/>
</linearGradient>
<linearGradient id="paint43_linear_1509_16874" x1="-0.640497" y1="212.3" x2="85.8121" y2="483.89" gradientUnits="userSpaceOnUse">
<stop stop-color="#BF953F"/>
<stop offset="0.21875" stop-color="#FCF6BA"/>
<stop offset="0.515625" stop-color="#B38728"/>
<stop offset="0.78125" stop-color="#FBF5B7"/>
<stop offset="1" stop-color="#AA771C"/>
</linearGradient>
<linearGradient id="paint44_linear_1509_16874" x1="-2.40596" y1="516.556" x2="11.14" y2="614.844" gradientUnits="userSpaceOnUse">
<stop stop-color="#BF953F"/>
<stop offset="0.21875" stop-color="#FCF6BA"/>
<stop offset="0.515625" stop-color="#B38728"/>
<stop offset="0.78125" stop-color="#FBF5B7"/>
<stop offset="1" stop-color="#AA771C"/>
</linearGradient>
<linearGradient id="paint45_linear_1509_16874" x1="877.097" y1="1265.77" x2="1002.69" y2="1415.17" gradientUnits="userSpaceOnUse">
<stop stop-color="#BF953F"/>
<stop offset="0.21875" stop-color="#FCF6BA"/>
<stop offset="0.515625" stop-color="#B38728"/>
<stop offset="0.78125" stop-color="#FBF5B7"/>
<stop offset="1" stop-color="#AA771C"/>
</linearGradient>
<linearGradient id="paint46_linear_1509_16874" x1="1463.3" y1="585.482" x2="1609.23" y2="507.454" gradientUnits="userSpaceOnUse">
<stop stop-color="#BF953F"/>
<stop offset="0.21875" stop-color="#FCF6BA"/>
<stop offset="0.515625" stop-color="#B38728"/>
<stop offset="0.78125" stop-color="#FBF5B7"/>
<stop offset="1" stop-color="#AA771C"/>
</linearGradient>
<linearGradient id="paint47_linear_1509_16874" x1="1365.9" y1="1599.25" x2="1441.9" y2="1535.69" gradientUnits="userSpaceOnUse">
<stop stop-color="#BF953F"/>
<stop offset="0.21875" stop-color="#FCF6BA"/>
<stop offset="0.515625" stop-color="#B38728"/>
<stop offset="0.78125" stop-color="#FBF5B7"/>
<stop offset="1" stop-color="#AA771C"/>
</linearGradient>
<linearGradient id="paint48_linear_1509_16874" x1="1365.9" y1="1331.46" x2="1412.72" y2="1269.38" gradientUnits="userSpaceOnUse">
<stop stop-color="#BF953F"/>
<stop offset="0.21875" stop-color="#FCF6BA"/>
<stop offset="0.515625" stop-color="#B38728"/>
<stop offset="0.78125" stop-color="#FBF5B7"/>
<stop offset="1" stop-color="#AA771C"/>
</linearGradient>
<linearGradient id="paint49_linear_1509_16874" x1="316.897" y1="115.18" x2="236.205" y2="194.646" gradientUnits="userSpaceOnUse">
<stop stop-color="#BF953F"/>
<stop offset="0.21875" stop-color="#FCF6BA"/>
<stop offset="0.515625" stop-color="#B38728"/>
<stop offset="0.78125" stop-color="#FBF5B7"/>
<stop offset="1" stop-color="#AA771C"/>
</linearGradient>
<linearGradient id="paint50_linear_1509_16874" x1="455.108" y1="571.733" x2="394.089" y2="655.718" gradientUnits="userSpaceOnUse">
<stop stop-color="#BF953F"/>
<stop offset="0.21875" stop-color="#FCF6BA"/>
<stop offset="0.515625" stop-color="#B38728"/>
<stop offset="0.78125" stop-color="#FBF5B7"/>
<stop offset="1" stop-color="#AA771C"/>
</linearGradient>
<linearGradient id="paint51_linear_1509_16874" x1="849.068" y1="808.09" x2="907.944" y2="891.764" gradientUnits="userSpaceOnUse">
<stop stop-color="#BF953F"/>
<stop offset="0.21875" stop-color="#FCF6BA"/>
<stop offset="0.515625" stop-color="#B38728"/>
<stop offset="0.78125" stop-color="#FBF5B7"/>
<stop offset="1" stop-color="#AA771C"/>
</linearGradient>
</defs>
</svg>
