<svg width="1920" height="1920" viewBox="0 0 1920 1920" fill="none" xmlns="http://www.w3.org/2000/svg">
<path fill-rule="evenodd" clip-rule="evenodd" d="M534 0H1920V822H1340V924H1039V750H782V924H697V846H0V0H88V289H534V0ZM0 1126H599V1174H0V1126ZM0 1454V1920H1284V1768H1920V1119H1388V1183H1572V1676H1276V1586H599V1454H0ZM1767 201H1412V730H1767V201ZM289 453H546V742H289V453Z" fill="#121212"/>
<path fill-rule="evenodd" clip-rule="evenodd" d="M534 0H1920V822H1340V924H1039V750H782V924H697V846H0V0H88V289H534V0ZM0 1126H599V1174H0V1126ZM0 1454V1920H1284V1768H1920V1119H1388V1183H1572V1676H1276V1586H599V1454H0ZM1767 201H1412V730H1767V201ZM289 453H546V742H289V453Z" fill="white" fill-opacity="0.05"/>
</svg>
